<svg width="58" height="58" viewBox="0 0 58 58" fill="none" xmlns="http://www.w3.org/2000/svg">
<circle cx="29" cy="29" r="29" fill="url(#paint0_linear)"/>
<path fill-rule="evenodd" clip-rule="evenodd" d="M38.3 23.9H35.2L33.5 22H26.8V24.8H23.9V27.6H21V37.1C21 38.1 21.9 39 22.9 39H38.3C39.4 39 40.2 38.1 40.2 37.1V25.7C40.2 24.7 39.4 23.9 38.3 23.9ZM30.6 36.2C27.9 36.2 25.8 34.1 25.8 31.5C25.8 28.9 28 26.8 30.6 26.8C33.3 26.8 35.4 28.9 35.4 31.5C35.4 34 33.2 36.2 30.6 36.2Z" fill="white"/>
<path fill-rule="evenodd" clip-rule="evenodd" d="M22.6 21.8V19H20.8V21.8H18V23.6H20.8V26.4H22.6V23.6H25.4V21.8H22.6Z" fill="white"/>
<path fill-rule="evenodd" clip-rule="evenodd" d="M30.6 28.6C29 28.6 27.6 29.9 27.6 31.6C27.6 33.3 28.9 34.6 30.6 34.6C32.2 34.6 33.6 33.3 33.6 31.6C33.6 29.9 32.2 28.6 30.6 28.6Z" fill="white"/>
<defs>
<linearGradient id="paint0_linear" x1="48" y1="50" x2="7.5" y2="10.5" gradientUnits="userSpaceOnUse">
<stop stop-color="#368DEE"/>
<stop offset="1" stop-color="#50C0F1"/>
</linearGradient>
</defs>
</svg>
