<svg width="20" height="20" viewBox="0 0 20 20" fill="" xmlns="http://www.w3.org/2000/svg">
<path fill-rule="evenodd" clip-rule="evenodd" d="M11.4 10L19.7 1.7C20.1 1.3 20.1 0.7 19.7 0.3C19.3 -0.1 18.7 -0.1 18.3 0.3L10 8.6L1.7 0.3C1.3 -0.1 0.7 -0.1 0.3 0.3C-0.1 0.7 -0.1 1.3 0.3 1.7L8.6 10L0.3 18.3C-0.1 18.7 -0.1 19.3 0.3 19.7C0.5 19.9 0.8 20 1 20C1.3 20 1.5 19.9 1.7 19.7L10 11.4L18.3 19.7C18.5 19.9 18.8 20 19 20C19.2 20 19.5 19.9 19.7 19.7C20.1 19.3 20.1 18.7 19.7 18.3L11.4 10Z" fill="#ffffff"/>
</svg>
