<svg width="19" height="19" viewBox="0 0 19 19" fill="none" xmlns="http://www.w3.org/2000/svg">
<path d="M15.5104 3.48957C13.905 1.88413 11.7704 1 9.5 1C7.22957 1 5.09501 1.88413 3.48957 3.48957C1.88417 5.09501 1 7.22957 1 9.5C1 11.7704 1.88417 13.905 3.48957 15.5104C5.09501 17.1159 7.22957 18 9.5 18C11.7704 18 13.905 17.1159 15.5104 15.5104C17.1158 13.905 18 11.7704 18 9.5C18 7.22957 17.1158 5.09501 15.5104 3.48957ZM9.5 17.0039C5.36233 17.0039 1.99609 13.6377 1.99609 9.5C1.99609 5.36233 5.36233 1.99609 9.5 1.99609C13.6377 1.99609 17.0039 5.36233 17.0039 9.5C17.0039 13.6377 13.6377 17.0039 9.5 17.0039Z" fill="#2AC026" stroke="#2AC026" stroke-width="0.5"/>
<path d="M10.0333 9.00158H8.96632C8.35847 9.00158 7.86398 8.50708 7.86398 7.89927C7.86398 7.29142 8.35851 6.79692 8.96632 6.79692H11.1002C11.3752 6.79692 11.5982 6.57393 11.5982 6.29888C11.5982 6.02382 11.3752 5.80083 11.1002 5.80083H9.99785V4.69849C9.99785 4.42343 9.77485 4.20044 9.4998 4.20044C9.22474 4.20044 9.00175 4.42343 9.00175 4.69849V5.80083H8.96636C7.80926 5.80083 6.86792 6.7422 6.86792 7.89927C6.86792 9.05633 7.8093 9.99767 8.96636 9.99767H10.0333C10.6411 9.99767 11.1356 10.4922 11.1356 11.1C11.1356 11.7078 10.6411 12.2024 10.0333 12.2024H7.89944C7.62439 12.2024 7.40139 12.4254 7.40139 12.7004C7.40139 12.9755 7.62439 13.1985 7.89944 13.1985H9.00175V14.3008C9.00175 14.5759 9.22474 14.7989 9.4998 14.7989C9.77485 14.7989 9.99785 14.5759 9.99785 14.3008V13.1985H10.0333C11.1903 13.1985 12.1317 12.2571 12.1317 11.1C12.1317 9.94295 11.1903 9.00158 10.0333 9.00158Z" fill="#2AC026" stroke="#2AC026" stroke-width="0.5"/>
</svg>
