<svg width="24" height="24" viewBox="0 0 24 24" fill="none" xmlns="http://www.w3.org/2000/svg">
<path d="M12 0C5.37097 0 0 5.37097 0 12C0 18.629 5.37097 24 12 24C18.629 24 24 18.629 24 12C24.0484 5.37097 18.629 0 12 0ZM15 12.4355H13.0645C13.0645 15.5806 13.0645 19.4032 13.0645 19.4032H10.1613C10.1613 19.4032 10.1613 15.5806 10.1613 12.4355H8.80645V9.96774H10.1613V8.37097C10.1613 7.20968 10.6935 5.46774 13.0645 5.46774H15.1935V7.83871C15.1935 7.83871 13.8871 7.83871 13.6452 7.83871C13.4032 7.83871 13.0645 7.98387 13.0645 8.51613V9.96774H15.2903L15 12.4355Z" fill="url(#paint0_linear)"/>
<defs>
<linearGradient id="paint0_linear" x1="19.8387" y1="21.2903" x2="5.56452" y2="1.93548" gradientUnits="userSpaceOnUse">
<stop stop-color="#368DEE"/>
<stop offset="1" stop-color="#50C0F1"/>
</linearGradient>
</defs>
</svg>
