<svg width="25" height="17" viewBox="0 0 25 17" fill="none" xmlns="http://www.w3.org/2000/svg">
<path d="M21.6041 1H3.39581C2.07525 1 1 2.07525 1 3.39586V13.9375C1 15.2581 2.07525 16.3333 3.39581 16.3333H21.6041C22.9247 16.3333 23.9999 15.2581 23.9999 13.9375V3.39586C24 2.07525 22.9247 1 21.6041 1ZM23.0416 13.9375C23.0416 14.73 22.3967 15.375 21.6041 15.375H3.39581C2.60326 15.375 1.95832 14.73 1.95832 13.9375V3.39586C1.95832 2.6033 2.60326 1.95836 3.39581 1.95836H21.6041C22.3967 1.95836 23.0416 2.6033 23.0416 3.39586V13.9375H23.0416Z" fill="#2AC026" stroke="#2AC026" stroke-width="0.4"/>
<path d="M23.5208 3.875H1.47918C1.21468 3.875 1 4.08968 1 4.35418V7.22918C1 7.49367 1.21468 7.70836 1.47918 7.70836H23.5208C23.7853 7.70836 24 7.49367 24 7.22918V4.35418C24 4.08968 23.7853 3.875 23.5208 3.875ZM23.0416 6.74999H1.95832V4.83332H23.0416V6.74999H23.0416Z" fill="#2AC026" stroke="#2AC026" stroke-width="0.4"/>
<path d="M10.1042 10.584H4.35418C4.08968 10.584 3.875 10.7987 3.875 11.0632C3.875 11.3277 4.08968 11.5423 4.35418 11.5423H10.1042C10.3687 11.5423 10.5834 11.3276 10.5834 11.0631C10.5834 10.7986 10.3687 10.584 10.1042 10.584Z" fill="#2AC026" stroke="#2AC026" stroke-width="0.4"/>
<path d="M10.1042 12.5H4.35418C4.08968 12.5 3.875 12.7147 3.875 12.9792C3.875 13.2437 4.08968 13.4584 4.35418 13.4584H10.1042C10.3687 13.4584 10.5834 13.2437 10.5834 12.9792C10.5833 12.7147 10.3687 12.5 10.1042 12.5Z" fill="#2AC026" stroke="#2AC026" stroke-width="0.4"/>
<path d="M19.6873 9.625H18.729C17.9364 9.625 17.2915 10.2699 17.2915 11.0625V12.0208C17.2915 12.8134 17.9364 13.4583 18.729 13.4583H19.6873C20.4799 13.4583 21.1248 12.8134 21.1248 12.0208V11.0625C21.1248 10.27 20.4799 9.625 19.6873 9.625ZM20.1665 12.0209C20.1665 12.2854 19.9518 12.5 19.6873 12.5H18.729C18.4645 12.5 18.2498 12.2854 18.2498 12.0209V11.0625C18.2498 10.798 18.4645 10.5834 18.729 10.5834H19.6873C19.9518 10.5834 20.1665 10.798 20.1665 11.0625V12.0209Z" fill="#2AC026" stroke="#2AC026" stroke-width="0.4"/>
</svg>
