<svg width="28" height="26" viewBox="0 0 28 26" fill="none" xmlns="http://www.w3.org/2000/svg">
<path fill-rule="evenodd" clip-rule="evenodd" d="M26.8133 10.7415L14.4741 1.16327C14.2557 0.945578 13.9281 0.945578 13.7098 1.16327L1.2614 10.7415C0.933814 10.9592 0.933814 11.3946 1.15221 11.7211C1.3706 12.0476 1.80738 12.1565 2.13497 11.8299L14.1465 2.57823L26.1581 11.8299C26.2673 11.9388 26.3765 11.9388 26.5949 11.9388C26.8133 11.9388 27.0317 11.8299 27.1409 11.6122C27.2501 11.3946 27.1409 10.9592 26.8133 10.7415Z" fill="#F7666A"/>
<path d="M26.8133 10.7415L14.4741 1.16327C14.2557 0.945578 13.9281 0.945578 13.7098 1.16327L1.2614 10.7415C0.933814 10.9592 0.933814 11.3946 1.15221 11.7211C1.3706 12.0476 1.80738 12.1565 2.13497 11.8299L14.1465 2.57823L26.1581 11.8299C26.2673 11.9388 26.3765 11.9388 26.5949 11.9388C26.8133 11.9388 27.0317 11.8299 27.1409 11.6122C27.2501 11.3946 27.1409 10.9592 26.8133 10.7415Z" stroke="#F7666A" stroke-miterlimit="100"/>
<path fill-rule="evenodd" clip-rule="evenodd" d="M23.5374 12.0476C23.2098 12.0476 22.8822 12.3742 22.8822 12.7007V23.585H17.4224V17.5986C17.4224 15.7483 15.8937 14.2245 14.0373 14.2245C12.181 14.2245 10.6523 15.7483 10.6523 17.5986V23.585H5.19246V12.7007C5.19246 12.3742 4.86488 12.0476 4.53729 12.0476C4.2097 12.0476 3.88211 12.3742 3.88211 12.7007V24.3469C3.88211 24.6735 4.2097 25 4.53729 25H11.3074C11.635 25 11.9626 24.6735 11.9626 24.3469V17.7075C11.9626 16.6191 12.8362 15.6395 14.0373 15.6395C15.1293 15.6395 16.1121 16.5102 16.1121 17.7075V24.3469C16.1121 24.6735 16.4397 25 16.7672 25H23.5374C23.865 25 24.1926 24.6735 24.1926 24.3469V12.7007C24.1926 12.2653 23.9742 12.0476 23.5374 12.0476Z" fill="#F7666A"/>
<path d="M23.5374 12.0476C23.2098 12.0476 22.8822 12.3742 22.8822 12.7007V23.585H17.4224V17.5986C17.4224 15.7483 15.8937 14.2245 14.0373 14.2245C12.181 14.2245 10.6523 15.7483 10.6523 17.5986V23.585H5.19246V12.7007C5.19246 12.3742 4.86488 12.0476 4.53729 12.0476C4.2097 12.0476 3.88211 12.3742 3.88211 12.7007V24.3469C3.88211 24.6735 4.2097 25 4.53729 25H11.3074C11.635 25 11.9626 24.6735 11.9626 24.3469V17.7075C11.9626 16.6191 12.8362 15.6395 14.0373 15.6395C15.1293 15.6395 16.1121 16.5102 16.1121 17.7075V24.3469C16.1121 24.6735 16.4397 25 16.7672 25H23.5374C23.865 25 24.1926 24.6735 24.1926 24.3469V12.7007C24.1926 12.2653 23.9742 12.0476 23.5374 12.0476Z" stroke="#F7666A" stroke-miterlimit="100"/>
</svg>
