<svg width="24" height="24" viewBox="0 0 24 24" fill="none" xmlns="http://www.w3.org/2000/svg">
<path fill-rule="evenodd" clip-rule="evenodd" d="M12 0C5.37097 0 0 5.37097 0 12C0 18.629 5.37097 24 12 24C18.629 24 24 18.629 24 12C24.0484 5.37097 18.629 0 12 0ZM18.8226 10.5968V16.2097C18.8226 17.6613 17.6613 18.871 16.1613 18.871H7.83871C6.3871 18.871 5.17742 17.7097 5.17742 16.2097V10.5968V7.79032C5.17742 6.33871 6.33871 5.12903 7.83871 5.12903H16.2097C17.6613 5.12903 18.871 6.29032 18.871 7.79032V10.5968H18.8226ZM17.2742 7.06452V9.04839L14.9516 9.09677V6.77419H16.9839H17.2742V7.06452ZM14.4194 12C14.4194 13.3548 13.3065 14.4194 12 14.4194C10.6935 14.4194 9.62903 13.3548 9.67742 12C9.67742 11.4677 9.82258 10.9839 10.1129 10.5968C10.5484 9.96774 11.2258 9.58065 12.0484 9.58065C12.8226 9.58065 13.5484 9.96774 13.9839 10.5968C14.2258 10.9839 14.4194 11.4677 14.4194 12ZM12 15.7258C14.0323 15.7258 15.7258 14.0806 15.7258 12C15.7258 11.5161 15.629 11.0323 15.4839 10.5968H17.5161V16.2097C17.5161 16.9355 16.9355 17.5161 16.2097 17.5161H7.83871C7.1129 17.5161 6.53226 16.9355 6.53226 16.2097V10.5968H8.56452C8.37097 11.0323 8.27419 11.5161 8.27419 12C8.27419 14.0323 9.96774 15.7258 12 15.7258Z" fill="url(#paint0_linear)"/>
<defs>
<linearGradient id="paint0_linear" x1="19.3548" y1="20.8065" x2="5.56452" y2="1.93549" gradientUnits="userSpaceOnUse">
<stop stop-color="#368DEE"/>
<stop offset="1" stop-color="#50C0F1"/>
</linearGradient>
</defs>
</svg>
