<svg width="24" height="24" viewBox="0 0 24 24" fill="none" xmlns="http://www.w3.org/2000/svg">
<path d="M12 24C10.8941 24 9.83137 23.8549 8.80784 23.5686C7.78431 23.2824 6.82745 22.8784 5.94118 22.3569C5.0549 21.8353 4.24706 21.2118 3.51765 20.4863C2.78824 19.7569 2.16471 18.949 1.64706 18.0627C1.12549 17.1765 0.721569 16.2196 0.435294 15.1961C0.145098 14.1686 0 13.1059 0 12C0 10.8941 0.145098 9.83137 0.431373 8.80784C0.717647 7.78431 1.12157 6.82745 1.64314 5.94118C2.16471 5.0549 2.78824 4.24706 3.51373 3.51765C4.23922 2.78824 5.05098 2.16471 5.93725 1.64706C6.82353 1.12941 7.78039 0.721569 8.80392 0.435294C9.82745 0.14902 10.8941 0 12 0C13.6471 0 15.2039 0.317647 16.6667 0.94902C18.1294 1.58039 19.4039 2.43529 20.4824 3.51765C21.5608 4.6 22.4196 5.87059 23.051 7.33333C23.6824 8.79608 24 10.3529 24 12C24 13.1059 23.8549 14.1686 23.5686 15.1922C23.2824 16.2157 22.8784 17.1725 22.3569 18.0588C21.8353 18.9451 21.2118 19.7529 20.4863 20.4824C19.7569 21.2118 18.949 21.8353 18.0627 22.3529C17.1765 22.8745 16.2196 23.2784 15.1961 23.5647C14.1686 23.8549 13.1059 24 12 24ZM17.7843 7.0549H6.40784C6.29412 7.0549 6.2 7.0902 6.12157 7.16471C6.04314 7.23922 6 7.33726 6 7.46275V8.73333C6 8.79608 6.02353 8.82745 6.07059 8.82745L12.0471 12.2353L12.0941 12.2588C12.1255 12.2588 12.149 12.251 12.1647 12.2353L17.949 8.82745C17.9804 8.81177 18.0039 8.80392 18.0196 8.80392C18.0353 8.80392 18.0588 8.79608 18.0902 8.78039C18.1529 8.78039 18.1843 8.74902 18.1843 8.68627V7.46275C18.1843 7.33333 18.1451 7.23529 18.0627 7.16471C17.9804 7.09412 17.8941 7.0549 17.7843 7.0549ZM9.62353 12.1686C9.63922 12.1529 9.64706 12.1294 9.64706 12.098C9.64706 12.051 9.63137 12.0275 9.6 12.0275L6.16863 10.0588C6.12157 10.0431 6.08235 10.0431 6.04706 10.0588C6.01569 10.0588 6 10.0824 6 10.1294V15.2902C6 15.3373 6.02353 15.3686 6.07059 15.3843H6.11765C6.14902 15.3843 6.16471 15.3765 6.16471 15.3608L9.62353 12.1686ZM13.8 12.5529C13.7843 12.5059 13.7451 12.498 13.6784 12.5294L12.3608 13.2941C12.2 13.3882 12.0314 13.3882 11.8549 13.2941L10.702 12.6471C10.6549 12.6157 10.6157 12.6157 10.5804 12.6471L6.18824 16.7255C6.17255 16.7412 6.16471 16.7725 6.16471 16.8196C6.16471 16.8353 6.18039 16.8588 6.21176 16.8902C6.30588 16.9216 6.37255 16.9373 6.40392 16.9373H17.6588C17.6902 16.9373 17.7216 16.9216 17.7529 16.8902C17.7529 16.8275 17.7451 16.7882 17.7294 16.7686L13.8 12.5529ZM18.1216 9.96078H18.0275L14.7647 11.9059C14.7333 11.9059 14.7176 11.9294 14.7176 11.9765C14.702 11.9922 14.7098 12.0157 14.7412 12.0471L18.0039 15.5765C18.0353 15.6078 18.0588 15.6235 18.0745 15.6235H18.1216C18.1686 15.5765 18.1922 15.5451 18.1922 15.5294V10.0549C18.1922 10.0235 18.1686 9.99216 18.1216 9.96078Z" fill="url(#paint0_linear)"/>
<defs>
<linearGradient id="paint0_linear" x1="20.5" y1="20.5" x2="4" y2="2.5" gradientUnits="userSpaceOnUse">
<stop stop-color="#368DEE"/>
<stop offset="1" stop-color="#50C0F1"/>
</linearGradient>
</defs>
</svg>
