<svg width="16" height="16" viewBox="0 0 16 16" fill="none" xmlns="http://www.w3.org/2000/svg">
<path d="M9.42713 8L15.8954 1.53214C16.0346 1.39275 16.0346 1.16689 15.8954 1.0275L14.9729 0.104502C14.906 0.0377557 14.815 0 14.7204 0C14.6257 0 14.5348 0.0377557 14.4679 0.104502L7.99981 6.57253L1.5317 0.104502C1.3977 -0.0294967 1.16054 -0.0293281 1.02688 0.104502L0.104546 1.0275C-0.0348487 1.16689 -0.0348487 1.39275 0.104546 1.53214L6.57266 8L0.104546 14.4679C-0.0348487 14.6073 -0.0348487 14.8331 0.104546 14.9725L1.02705 15.8955C1.09396 15.9622 1.18481 16 1.27954 16C1.37427 16 1.46495 15.9622 1.53187 15.8955L7.99998 9.42747L14.4681 15.8955C14.535 15.9622 14.626 16 14.7206 16C14.8151 16 14.9062 15.9622 14.9731 15.8955L15.8956 14.9725C16.0348 14.8331 16.0348 14.6073 15.8956 14.4679L9.42713 8Z" fill="#FF0000"/>
</svg>
