<svg width="22" height="24" viewBox="0 0 22 24" fill="none" xmlns="http://www.w3.org/2000/svg">
<path fill-rule="evenodd" clip-rule="evenodd" d="M21.5069 5.73717C21.5069 5.61702 21.5069 5.49687 21.5069 5.49687C21.3867 5.37672 21.2666 5.25657 21.1464 5.13642L11.0538 0.0901126C10.9337 -0.0300375 10.6934 -0.0300375 10.5732 0.0901126L0.36045 5.13642C0.120149 5.25657 0 5.37672 0 5.61702V18.3529C0 18.5932 0.120149 18.8335 0.36045 18.9537L10.5732 24C10.5732 24 10.5732 24 10.6934 24C10.8135 24 10.6934 24 10.8135 24L21.0263 18.9537C21.2666 18.8335 21.3867 18.5932 21.3867 18.3529L21.5069 5.73717ZM10.6934 1.41177L19.5845 5.85732L16.3404 7.41927L7.44931 2.97372L10.6934 1.41177ZM10.0926 22.5582L1.08135 18.1126V6.81852L10.0926 11.2641V22.5582ZM10.6934 10.1827L1.80225 5.73717L6.00751 3.69462L14.8986 8.14017L10.6934 10.1827ZM20.3054 17.9925L11.2941 22.438V11.1439L15.4994 9.10138V12.1051C15.4994 12.4656 15.7397 12.7059 16.1001 12.7059C16.4606 12.7059 16.7009 12.3454 16.7009 12.1051V8.50062L20.3054 6.69837V17.9925Z" fill="#4A4A4A"/>
</svg>
