<svg width="24" height="24" viewBox="0 0 24 24" fill="none" xmlns="http://www.w3.org/2000/svg">
<path d="M12 0C5.37181 0 0 5.37181 0 12C0 18.6282 5.37181 24 12 24C18.6282 24 24 18.6282 24 12C24 5.37181 18.6282 0 12 0ZM18.3364 17.5103L17.3768 18.4699C17.2036 18.643 16.704 18.7469 16.6892 18.7469C13.6472 18.7716 10.7238 17.5796 8.57213 15.4279C6.4155 13.2712 5.21847 10.3331 5.25309 7.28112C5.25309 7.28112 5.36191 6.79143 5.53504 6.62325L6.49464 5.66364C6.84584 5.31245 7.5235 5.14922 7.9934 5.3075L8.19621 5.37675C8.66612 5.53504 9.1657 6.05441 9.29431 6.53916L9.77906 8.31492C9.90767 8.79472 9.73454 9.48228 9.38335 9.83347L8.74031 10.4765C9.36851 12.8063 11.1987 14.6364 13.5334 15.2696L14.1764 14.6265C14.5276 14.2754 15.2152 14.0973 15.695 14.2259L17.4707 14.7106C17.9505 14.8442 18.4749 15.3339 18.6331 15.8087L18.7024 16.0115C18.8458 16.4864 18.6876 17.1591 18.3364 17.5103Z" fill="url(#paint0_linear)"/>
<defs>
<linearGradient id="paint0_linear" x1="20" y1="19.5" x2="4.5" y2="3" gradientUnits="userSpaceOnUse">
<stop stop-color="#368DEE"/>
<stop offset="1" stop-color="#50C0F1"/>
</linearGradient>
</defs>
</svg>
