<?xml version="1.0" encoding="UTF-8"?>
<svg xmlns="http://www.w3.org/2000/svg" xmlns:xlink="http://www.w3.org/1999/xlink" width="13pt" height="9pt" viewBox="0 0 13 9" version="1.1">
<g id="surface1">
<path style="fill-rule:nonzero;fill:rgb(100%,0%,0%);fill-opacity:1;stroke-width:0.4;stroke-linecap:butt;stroke-linejoin:miter;stroke:rgb(100%,0%,0%);stroke-opacity:1;stroke-miterlimit:4;" d="M 22.5 1 L 3.5 1 C 2.125 1 1 2.125 1 3.5 L 1 14.5 C 1 15.875 2.125 17 3.5 17 L 22.5 17 C 23.875 17 25 15.875 25 14.5 L 25 3.5 C 25 2.125 23.875 1 22.5 1 Z M 24 14.5 C 24 15.328125 23.328125 16 22.5 16 L 3.5 16 C 2.671875 16 2 15.328125 2 14.5 L 2 3.5 C 2 2.671875 2.671875 2 3.5 2 L 22.5 2 C 23.328125 2 24 2.671875 24 3.5 Z M 24 14.5 " transform="matrix(0.5,0,0,0.5,0,0)"/>
<path style="fill-rule:nonzero;fill:rgb(100%,0%,0%);fill-opacity:1;stroke-width:0.4;stroke-linecap:butt;stroke-linejoin:miter;stroke:rgb(100%,0%,0%);stroke-opacity:1;stroke-miterlimit:4;" d="M 24.5 4 L 1.5 4 C 1.226562 4 1 4.226562 1 4.5 L 1 7.5 C 1 7.773438 1.226562 8 1.5 8 L 24.5 8 C 24.773438 8 25 7.773438 25 7.5 L 25 4.5 C 25 4.226562 24.773438 4 24.5 4 Z M 24 7 L 2 7 L 2 5 L 24 5 Z M 24 7 " transform="matrix(0.5,0,0,0.5,0,0)"/>
<path style="fill-rule:nonzero;fill:rgb(100%,0%,0%);fill-opacity:1;stroke-width:0.4;stroke-linecap:butt;stroke-linejoin:miter;stroke:rgb(100%,0%,0%);stroke-opacity:1;stroke-miterlimit:4;" d="M 10.5 11 L 4.5 11 C 4.226562 11 4 11.226562 4 11.5 C 4 11.773438 4.226562 12 4.5 12 L 10.5 12 C 10.773438 12 11 11.773438 11 11.5 C 11 11.226562 10.773438 11 10.5 11 Z M 10.5 11 " transform="matrix(0.5,0,0,0.5,0,0)"/>
<path style="fill-rule:nonzero;fill:rgb(100%,0%,0%);fill-opacity:1;stroke-width:0.4;stroke-linecap:butt;stroke-linejoin:miter;stroke:rgb(100%,0%,0%);stroke-opacity:1;stroke-miterlimit:4;" d="M 10.5 13 L 4.5 13 C 4.226562 13 4 13.226562 4 13.5 C 4 13.773438 4.226562 14 4.5 14 L 10.5 14 C 10.773438 14 11 13.773438 11 13.5 C 11 13.226562 10.773438 13 10.5 13 Z M 10.5 13 " transform="matrix(0.5,0,0,0.5,0,0)"/>
<path style="fill-rule:nonzero;fill:rgb(100%,0%,0%);fill-opacity:1;stroke-width:0.4;stroke-linecap:butt;stroke-linejoin:miter;stroke:rgb(100%,0%,0%);stroke-opacity:1;stroke-miterlimit:4;" d="M 20.5 10 L 19.5 10 C 18.671875 10 18 10.671875 18 11.5 L 18 12.5 C 18 13.328125 18.671875 14 19.5 14 L 20.5 14 C 21.328125 14 22 13.328125 22 12.5 L 22 11.5 C 22 10.671875 21.328125 10 20.5 10 Z M 21 12.5 C 21 12.773438 20.773438 13 20.5 13 L 19.5 13 C 19.226562 13 19 12.773438 19 12.5 L 19 11.5 C 19 11.226562 19.226562 11 19.5 11 L 20.5 11 C 20.773438 11 21 11.226562 21 11.5 Z M 21 12.5 " transform="matrix(0.5,0,0,0.5,0,0)"/>
</g>
</svg>
