<svg width="25" height="24" viewBox="0 0 25 24" fill="none" xmlns="http://www.w3.org/2000/svg">
<path fill-rule="evenodd" clip-rule="evenodd" d="M21.8 17.1C21.6 17.1 21.5 17.3 21.5 17.4C21.5 17.5 21.7 17.7 21.8 17.7C22 17.7 22.1 17.5 22.1 17.4C22.1 17.3 22 17.1 21.8 17.1Z" fill="#4A4A4A"/>
<path fill-rule="evenodd" clip-rule="evenodd" d="M23.7 4.7H20.4C20.4 2.1 18.3 0 15.7 0C13.1 0 11 2.1 11 4.7H7.4C7.1 4.7 6.9 4.9 6.9 5.2V10.6H0.5C0.2 10.6 0 10.8 0 11.1V22.6C0 23.4 0.6 24 1.4 24H22.6C23.4 24 24 23.4 24 22.6V5.2C24.2 4.9 24 4.7 23.7 4.7ZM15.8 0.9C17.9 0.9 19.6 2.6 19.6 4.7H12.1C12 2.6 13.7 0.9 15.8 0.9ZM12 22.6C12 22.9 11.8 23.1 11.5 23.1H1.6C1.3 23.1 1.1 22.9 1.1 22.6V20.9H12V22.6ZM12 20H1.1V11.6H12V20ZM23.3 22.6C23.3 22.9 23.1 23.1 22.8 23.1H12.9C13 23 13 22.8 13 22.6V20.9H23.3V22.6V22.6ZM23.3 20H12.9V11.1C12.9 10.8 12.7 10.6 12.4 10.6H7.9V5.6H11V7.8H10.5C10.2 7.8 10 8 10 8.3C10 8.6 10.2 8.8 10.5 8.8H12.4C12.7 8.8 12.9 8.6 12.9 8.3C12.9 8 12.7 7.8 12.4 7.8H11.9V5.6H19.4V7.8H18.9C18.6 7.8 18.4 8 18.4 8.3C18.4 8.6 18.6 8.8 18.9 8.8H20.8C21.1 8.8 21.3 8.6 21.3 8.3C21.3 8 21.1 7.8 20.8 7.8H20.3V5.6H23.1V20H23.3Z" fill="#4A4A4A"/>
<path fill-rule="evenodd" clip-rule="evenodd" d="M9.29999 13H8.29999C7.99999 13 7.79999 13.2 7.79999 13.5C7.79999 13.8 7.99999 14 8.29999 14V15C8.29999 16.1 7.39999 16.9 6.29999 16.9C5.19999 16.9 4.29999 16 4.29999 15V14C4.59999 14 4.79999 13.8 4.79999 13.5C4.79999 13.2 4.69999 13 4.39999 13H3.39999C3.09999 13 2.89999 13.2 2.89999 13.5C2.89999 13.8 3.19999 14 3.39999 14V15C3.39999 16.6 4.69999 17.9 6.29999 17.9C7.89999 17.9 9.19999 16.6 9.19999 15V14C9.49999 14 9.69999 13.8 9.69999 13.5C9.69999 13.2 9.59999 13 9.29999 13Z" fill="#4A4A4A"/>
<path fill-rule="evenodd" clip-rule="evenodd" d="M21.8 11.7C21.6 11.7 21.5 11.9 21.5 12.2V16C21.5 16.3 21.7 16.5 21.8 16.5C22 16.5 22.1 16.3 22.1 16V12.2C22.1 11.9 22 11.7 21.8 11.7Z" fill="#4A4A4A"/>
</svg>
