<svg width="24" height="24" viewBox="0 0 24 24" fill="none" xmlns="http://www.w3.org/2000/svg">
<path d="M11.9502 24C18.5501 24 23.9004 18.6274 23.9004 12C23.9004 5.37258 18.5501 0 11.9502 0C5.35029 0 0 5.37258 0 12C0 18.6274 5.35029 24 11.9502 24Z" fill="#C8C8C8"/>
<path fill-rule="evenodd" clip-rule="evenodd" d="M23.9004 11.2L18.9212 6.2L4.87967 11.7L10.2573 17.1L10.3568 17.4L16.332 23.4C20.8133 21.6 24 17.3 24 12.1C23.9004 11.8 23.9004 11.5 23.9004 11.2Z" fill="#A9A9A9"/>
<path fill-rule="evenodd" clip-rule="evenodd" d="M4.78006 11.7L8.96263 13.1L16.5311 7.9L10.4564 13.7L15.7344 17.8L18.4232 6.2L4.78006 11.7Z" fill="white"/>
<path fill-rule="evenodd" clip-rule="evenodd" d="M8.86307 12.9L9.9585 17.1L10.3568 13.6L16.4315 7.5L8.86307 12.9Z" fill="#D2D2D7"/>
<path fill-rule="evenodd" clip-rule="evenodd" d="M10.6556 13.7L10.2573 17.1L12.249 15L10.6556 13.7Z" fill="#B9B9BE"/>
</svg>
