<?xml version="1.0" encoding="UTF-8"?>
<svg xmlns="http://www.w3.org/2000/svg" xmlns:xlink="http://www.w3.org/1999/xlink" width="8pt" height="11pt" viewBox="0 0 8 11" version="1.1">
<g id="surface1">
<path style="fill-rule:nonzero;fill:rgb(65.490196%,65.490196%,65.490196%);fill-opacity:1;stroke-width:0.2;stroke-linecap:butt;stroke-linejoin:miter;stroke:rgb(65.490196%,65.490196%,65.490196%);stroke-opacity:1;stroke-miterlimit:4;" d="M 10.867188 3.839134 C 10.86084 5.080611 10.403809 6.268111 9.591309 7.138494 L 7.198242 9.695668 L 9.546875 12.06392 C 10.410156 12.941051 10.905273 14.169034 10.905273 15.457741 L 10.905273 17.050071 L 11.616211 17.050071 C 11.895508 17.050071 12.098633 17.292969 12.098633 17.576349 C 12.098633 17.852983 11.895508 18.102628 11.616211 18.102628 L 1.383789 18.102628 C 1.104492 18.102628 0.901367 17.852983 0.901367 17.576349 C 0.901367 17.292969 1.104492 17.050071 1.383789 17.050071 L 2.208984 17.050071 L 2.208984 15.424006 L 2.310547 15.424006 C 2.310547 14.182528 2.773926 12.995028 3.586426 12.144886 Z M 10.867188 3.839134 L 10.867188 1.949929 M 10.867188 3.839134 L 10.867188 1.949929 M 10.867188 1.949929 L 11.616211 1.949929 C 11.895508 1.949929 12.098633 1.707031 12.098633 1.423651 C 12.098633 1.147017 11.895508 0.897372 11.616211 0.897372 L 1.383789 0.897372 C 1.104492 0.897372 0.901367 1.147017 0.901367 1.423651 C 0.901367 1.707031 1.104492 1.949929 1.383789 1.949929 L 2.132812 1.949929 L 2.132812 3.839134 C 2.13916 5.080611 2.596191 6.268111 3.408691 7.138494 L 5.801758 9.695668 Z M 9.934082 17.050071 L 9.934082 15.457741 C 9.934082 14.459162 9.553223 13.507812 8.886719 12.833097 L 6.506348 10.424361 L 4.189453 12.833097 Z M 9.934082 17.050071 L 3.180176 17.050071 L 3.180176 15.424006 C 3.180176 14.445668 3.54834 13.507812 4.189453 12.833097 Z M 4.087891 6.38956 C 3.46582 5.721591 3.110352 4.803977 3.104004 3.839134 L 3.104004 1.949929 L 9.895996 1.949929 L 9.895996 3.839134 C 9.889648 4.803977 9.53418 5.721591 8.912109 6.38956 L 6.5 8.966974 Z M 4.087891 6.38956 " transform="matrix(0.615385,0,0,0.578947,0,0)"/>
</g>
</svg>
