<svg width="24" height="24" viewBox="0 0 24 24" fill="none" xmlns="http://www.w3.org/2000/svg">
<path d="M12 24C18.6274 24 24 18.6274 24 12C24 5.37258 18.6274 0 12 0C5.37258 0 0 5.37258 0 12C0 18.6274 5.37258 24 12 24Z" fill="#C8C8C8"/>
<path fill-rule="evenodd" clip-rule="evenodd" d="M19.2 8.50001C18.7 8.70001 18.2 8.90001 17.6 8.90001C18.2 8.50001 18.6 8 18.8 7.3C18.3 7.6 17.7 7.90001 17 8.00001C16.5 7.40001 15.8 7.10001 14.9 7.10001C13.3 7.10001 12.1 8.40001 12.1 10C12.1 10.2 12.1 10.4 12.2 10.7C9.9 10.6 7.8 9.40001 6.4 7.70001C6.2 8.10001 6 8.60001 6 9.10001C6 10.1 6.5 11 7.3 11.5C6.8 11.5 6.4 11.4 6 11.1C6 12.5 7 13.6 8.3 13.9C8.1 14 7.8 14 7.6 14C7.4 14 7.2 14 7.1 13.9C7.5 15 8.5 15.9 9.7 15.9C8.7 16.7 7.5 17.1 6.2 17.1C6 17.1 5.7 17.1 5.5 17.1C6.7 17.9 8.2 18.4 9.8 18.4C15 18.4 17.8 14 17.8 10.3C17.8 10.2 17.8 10.1 17.8 9.90001C18.3 9.60001 18.8 9.10001 19.2 8.50001Z" fill="#F1F2F2"/>
</svg>
