<svg width="21" height="25" viewBox="0 0 21 25" fill="none" xmlns="http://www.w3.org/2000/svg">
<path fill-rule="evenodd" clip-rule="evenodd" d="M14.6561 1.78308C13.5665 0.625456 12.2363 0.0130078 10.6873 0.011216C9.13816 0.00942423 7.80658 0.596975 6.7143 1.77389C5.62206 2.929 5.07494 4.36836 5.07305 6.00473C5.07115 7.64109 5.61494 9.08172 6.70451 10.2393C7.79408 11.397 9.12428 12.0094 10.6734 12.0112C12.2225 12.013 13.5541 11.4254 14.6463 10.2485C15.7386 9.09343 16.2857 7.65406 16.2876 6.0177C16.2895 4.38134 15.7457 2.9407 14.6561 1.78308ZM13.6657 9.22194C12.8356 10.1155 11.8532 10.5508 10.6751 10.5494C9.49688 10.548 8.51557 10.1105 7.68752 9.21502C6.85946 8.31952 6.44613 7.27177 6.44759 6.00632C6.44906 4.74086 6.86481 3.69407 7.69494 2.80048C8.52506 1.9069 9.50738 1.47167 10.6856 1.47303C11.8637 1.4744 12.8451 1.91189 13.6731 2.8074C14.5012 3.7029 14.9145 4.75065 14.913 6.01611C14.9116 7.28156 14.5176 8.32838 13.6657 9.22194Z" fill="#4A4A4A"/>
<path fill-rule="evenodd" clip-rule="evenodd" d="M20.397 18.3279C20.3757 17.8479 20.3109 17.3242 20.2024 16.7786C20.1158 16.2112 19.9855 15.6874 19.8333 15.2073C19.6812 14.7053 19.4854 14.225 19.2241 13.7447C18.9629 13.2644 18.6579 12.8277 18.3092 12.4782C17.9387 12.1069 17.5027 11.8227 17.0011 11.604C16.4996 11.3852 15.9324 11.2755 15.3215 11.2748C15.0815 11.2745 14.8632 11.3833 14.4047 11.6882C14.1208 11.8843 13.8151 12.1021 13.4439 12.3417C13.1382 12.5377 12.7235 12.7336 12.2214 12.9075C11.7194 13.0815 11.2175 13.1682 10.7157 13.1676C10.2139 13.167 9.71216 13.0792 9.21054 12.9041C8.70892 12.7289 8.29461 12.5321 7.98938 12.3354C7.64057 12.095 7.31355 11.8764 7.03014 11.6797C6.59413 11.3738 6.35425 11.2644 6.11425 11.2641C5.50335 11.2634 4.93595 11.3718 4.43388 11.5894C3.93181 11.807 3.4733 12.0901 3.12378 12.4607C2.77428 12.8093 2.46832 13.2453 2.20595 13.725C1.94358 14.2047 1.74666 14.6845 1.59335 15.1862C1.44007 15.666 1.33037 16.1895 1.22062 16.7566C1.13272 17.302 1.06666 17.8255 1.02247 18.3055C1.0001 18.7855 0.977722 19.2654 0.977142 19.7673C0.975653 21.0545 1.36717 22.1023 2.12992 22.8668C2.87086 23.6313 3.87406 24.0033 5.09588 24.0048L16.3104 24.0177C17.5104 24.0191 18.5145 23.6276 19.279 22.8866C20.0435 22.1239 20.4375 21.077 20.4389 19.7898C20.4395 19.288 20.4183 18.7861 20.397 18.3279ZM18.342 21.8383C17.8396 22.3395 17.1848 22.5787 16.3339 22.5778L5.11936 22.5648C4.26846 22.5638 3.59237 22.323 3.11295 21.8206C2.63353 21.3183 2.39429 20.6635 2.39532 19.7689C2.39585 19.3107 2.4182 18.8526 2.44052 18.4162C2.46285 17.9799 2.52883 17.5218 2.61668 17.0201C2.70454 16.5184 2.81416 16.0603 2.94555 15.6459C3.07694 15.2315 3.23012 14.839 3.44873 14.4683C3.64552 14.0976 3.86405 13.7924 4.12618 13.5309C4.36645 13.2912 4.65032 13.0951 4.99956 12.9646C5.32698 12.8341 5.67617 12.7472 6.0689 12.7477C6.11251 12.7696 6.19971 12.8351 6.33052 12.9225C6.61393 13.1192 6.94095 13.3378 7.28976 13.5782C7.68218 13.8405 8.20552 14.1029 8.83802 14.3C9.47049 14.5189 10.1249 14.6288 10.7576 14.6295C11.3904 14.6302 12.045 14.5219 12.678 14.3044C13.2892 14.087 13.8131 13.8476 14.2279 13.5862C14.5991 13.3467 14.9048 13.1288 15.1887 12.9328C15.3197 12.8457 15.4071 12.7803 15.4507 12.7585C15.8434 12.759 16.2142 12.8467 16.5195 12.978C16.8685 13.1311 17.1519 13.3278 17.3916 13.5462C17.6313 13.8083 17.871 14.1141 18.0669 14.4852C18.2628 14.8782 18.4369 15.2711 18.5674 15.664C18.6978 16.0787 18.8063 16.5588 18.893 17.0389C18.9797 17.5408 19.0446 18.0209 19.066 18.4355C19.0873 18.8718 19.1086 19.3301 19.108 19.7882C19.0634 20.6609 18.8444 21.337 18.342 21.8383Z" fill="#4A4A4A"/>
</svg>
