<svg width="20" height="20" viewBox="0 0 20 20" fill="none" xmlns="http://www.w3.org/2000/svg">
<path d="M11.3335 7.34326H8.66683C8.48275 7.34326 8.3335 7.49251 8.3335 7.6766V17.0099C8.3335 17.194 8.48275 17.3433 8.66683 17.3433H11.3335C11.5176 17.3433 11.6668 17.194 11.6668 17.0099V7.6766C11.6668 7.49247 11.5176 7.34326 11.3335 7.34326ZM11.0002 16.6766H9.00016V8.00993H11.0002V16.6766Z" fill="#4A4A4A"/>
<path d="M19.3335 6.00977H16.6668C16.4827 6.00977 16.3335 6.15902 16.3335 6.3431V17.0098C16.3335 17.1938 16.4827 17.3431 16.6668 17.3431H19.3335C19.5176 17.3431 19.6668 17.1938 19.6668 17.0098V6.3431C19.6668 6.15897 19.5176 6.00977 19.3335 6.00977ZM19.0002 16.6764H17.0002V6.67643H19.0002V16.6764Z" fill="#4A4A4A"/>
<path d="M15.3335 13.3433H12.6668C12.4827 13.3433 12.3335 13.4925 12.3335 13.6766V17.0099C12.3335 17.194 12.4827 17.3433 12.6668 17.3433H15.3335C15.5176 17.3433 15.6668 17.194 15.6668 17.0099V13.6766C15.6668 13.4925 15.5176 13.3433 15.3335 13.3433ZM15.0002 16.6766H13.0002V14.0099H15.0002V16.6766Z" fill="#4A4A4A"/>
<path d="M3.3335 8.67627H0.666829C0.482746 8.67627 0.333496 8.82552 0.333496 9.0096V17.0096C0.333496 17.1937 0.482746 17.3429 0.666829 17.3429H3.3335C3.51758 17.3429 3.66683 17.1937 3.66683 17.0096V9.0096C3.66683 8.82548 3.51758 8.67627 3.3335 8.67627ZM3.00016 16.6763H1.00016V9.34294H3.00016V16.6763Z" fill="#4A4A4A"/>
<path d="M7.3335 10.6763H4.66683C4.48275 10.6763 4.3335 10.8255 4.3335 11.0096V17.0096C4.3335 17.1937 4.48275 17.3429 4.66683 17.3429H7.3335C7.51758 17.3429 7.66683 17.1937 7.66683 17.0096V11.0096C7.66683 10.8255 7.51758 10.6763 7.3335 10.6763ZM7.00016 16.6763H5.00016V11.3429H7.00016V16.6763Z" fill="#4A4A4A"/>
<path d="M18.0194 0.323766C17.2777 0.318433 16.6721 0.915349 16.6668 1.65706C16.664 2.03156 16.8178 2.39018 17.091 2.64635L14.3244 7.72068C14.0738 7.65131 13.8075 7.6636 13.5644 7.75568L10.9907 3.89339C11.4838 3.34652 11.4402 2.50339 10.8933 2.01031C10.3464 1.51722 9.50329 1.56077 9.01021 2.10768C8.64792 2.50952 8.56434 3.09043 8.79867 3.5781L6.775 5.26239C6.21984 4.85743 5.4465 4.94806 5 5.47039L3.303 4.62172C3.45692 3.9016 2.99788 3.19306 2.27779 3.03918C1.55767 2.88527 0.849128 3.34427 0.695253 4.06439C0.541337 4.78452 1.00034 5.49306 1.72046 5.64693C1.81234 5.66656 1.90604 5.67643 2 5.67639C2.38438 5.67514 2.74925 5.50706 3 5.21572L4.697 6.06439C4.53688 6.78314 4.98975 7.49564 5.7085 7.65577C6.42725 7.81589 7.13975 7.36302 7.29988 6.64427C7.365 6.35197 7.32984 6.04627 7.2 5.77639L9.22367 4.09206C9.57246 4.35018 10.0278 4.41535 10.435 4.26539L13.008 8.12772C12.5162 8.67581 12.5619 9.51881 13.11 10.0106C13.6581 10.5024 14.5011 10.4567 14.9929 9.9086C15.4786 9.36722 15.4409 8.53647 14.908 8.04139L17.6747 2.96706C17.781 2.99481 17.8903 3.00914 18 3.00972C18.7418 3.01506 19.3473 2.41814 19.3527 1.67643C19.358 0.934724 18.761 0.329141 18.0194 0.323766ZM2 5.00972C1.63179 5.00972 1.33334 4.71127 1.33334 4.34306C1.33334 3.97485 1.63179 3.67639 2 3.67639C2.36821 3.67639 2.66667 3.97485 2.66667 4.34306C2.66667 4.71127 2.36821 5.00972 2 5.00972ZM6 7.00972C5.63179 7.00972 5.33334 6.71127 5.33334 6.34306C5.33334 5.97485 5.63179 5.67639 6 5.67639C6.36821 5.67639 6.66667 5.97485 6.66667 6.34306C6.66667 6.71127 6.36821 7.00972 6 7.00972ZM10 3.67639C9.63179 3.67639 9.33334 3.37793 9.33334 3.00972C9.33334 2.64152 9.63179 2.34306 10 2.34306C10.3682 2.34306 10.6667 2.64152 10.6667 3.00972C10.6667 3.37793 10.3682 3.67639 10 3.67639ZM14 9.67639C13.6318 9.67639 13.3333 9.37793 13.3333 9.00972C13.3333 8.64152 13.6318 8.34306 14 8.34306C14.3682 8.34306 14.6667 8.64152 14.6667 9.00972C14.6667 9.37793 14.3682 9.67639 14 9.67639ZM18 2.34306C17.6318 2.34306 17.3333 2.0446 17.3333 1.67639C17.3333 1.30818 17.6318 1.00972 18 1.00972C18.3682 1.00972 18.6667 1.30818 18.6667 1.67639C18.6667 2.0446 18.3682 2.34306 18 2.34306Z" fill="#4A4A4A"/>
<path d="M19.6667 17.6763H0.333333C0.14925 17.6763 0 17.8255 0 18.0096V19.3429C0 19.527 0.14925 19.6763 0.333333 19.6763H19.6667C19.8507 19.6763 20 19.527 20 19.3429V18.0096C20 17.8255 19.8507 17.6763 19.6667 17.6763ZM19.3333 19.0096H0.666667V18.3429H19.3333V19.0096Z" fill="#4A4A4A"/>
</svg>
