<svg width="20" height="20" viewBox="0 0 20 20" fill="none" xmlns="http://www.w3.org/2000/svg">
<path d="M9.50829 16.7126H3.97536C3.81877 16.7126 3.68734 16.5949 3.66985 16.4392L3.47006 14.6475L3.04519 16.4749C3.01293 16.6142 2.88883 16.7126 2.74589 16.7126H0.901698C0.807271 16.7126 0.718372 16.6694 0.659934 16.5952C0.601721 16.521 0.580737 16.4241 0.602849 16.3325L1.73698 11.6711C2.34179 9.65383 4.2891 8.31753 6.37405 8.47728C11.3065 8.8569 14.8827 8.92504 16.4424 8.66929C16.856 8.6025 17.2733 8.78334 17.5067 9.13307C17.6796 9.39266 17.7315 9.71396 17.6495 10.0148C17.5685 10.3119 17.3634 10.5591 17.0874 10.6927C15.8695 11.2814 13.3933 12.2172 10.2621 12.0276L9.81391 16.4364C9.79811 16.5932 9.66589 16.7126 9.50829 16.7126ZM4.25029 16.0976H9.23054L9.68078 11.6683C9.69782 11.5017 9.84222 11.3749 10.0122 11.3933C13.1407 11.6526 15.6196 10.7194 16.8196 10.1392C16.9377 10.0821 17.0216 9.98043 17.0566 9.85284C17.0919 9.72332 17.0693 9.58546 16.9953 9.47389C16.896 9.32486 16.7201 9.24544 16.5423 9.27601C14.4806 9.61265 9.84967 9.36096 6.32655 9.08998C4.53244 8.95054 2.84799 10.1048 2.33028 11.8317L1.29272 16.0976H2.50199L3.27681 12.7611C3.31054 12.6154 3.44851 12.5153 3.59404 12.5241C3.74364 12.5327 3.86491 12.6478 3.88172 12.7964L4.25029 16.0976Z" fill="#4A4A4A"/>
<path d="M7.15858 8.04748C5.74162 8.04748 4.58887 6.89462 4.58887 5.47754C4.58887 4.06046 5.74162 2.90771 7.15858 2.90771C8.57566 2.90771 9.72852 4.06046 9.72852 5.47754C9.72852 6.89462 8.57566 8.04748 7.15858 8.04748ZM7.15858 3.52233C6.08063 3.52233 5.2036 4.39959 5.2036 5.47754C5.2036 6.55561 6.08063 7.43275 7.15858 7.43275C8.23676 7.43275 9.1139 6.55561 9.1139 5.47754C9.1139 4.39959 8.23676 3.52233 7.15858 3.52233Z" fill="#4A4A4A"/>
<path d="M13.3807 8.33434C12.1175 8.33434 11.0898 7.3067 11.0898 6.04361C11.0898 4.78019 12.1175 3.75244 13.3807 3.75244C14.644 3.75244 15.6716 4.78019 15.6716 6.04361C15.6716 7.3067 14.644 8.33434 13.3807 8.33434ZM13.3807 4.36706C12.4565 4.36706 11.7045 5.11898 11.7045 6.04361C11.7045 6.96769 12.4565 7.71972 13.3807 7.71972C14.3051 7.71972 15.057 6.96769 15.057 6.04361C15.057 5.11898 14.3051 4.36706 13.3807 4.36706Z" fill="#4A4A4A"/>
<path d="M19.0372 16.712H16.7748C16.655 16.712 16.5459 16.6422 16.4959 16.5337L15.9508 15.3566V16.4045C15.9508 16.5744 15.8133 16.712 15.6434 16.712H10.7382C10.651 16.712 10.5679 16.6751 10.5095 16.6103C10.4511 16.5453 10.4232 16.4588 10.4324 16.3722L10.8128 12.7978C10.8295 12.6415 10.9611 12.5229 11.1183 12.5229C11.1553 12.5229 14.8406 12.5038 17.3763 11.055C17.4579 11.0081 17.5564 11.001 17.6432 11.0368C17.7305 11.0715 17.7968 11.1443 17.8236 11.2345L19.332 16.3173C19.3596 16.4101 19.3416 16.5106 19.2839 16.5883C19.2254 16.6661 19.134 16.712 19.0372 16.712ZM16.971 16.097H18.6252L17.3416 11.772C15.0957 12.9181 12.2834 13.1024 11.3954 13.1318L11.08 16.097H15.3361V13.9613C15.3361 13.8171 15.4364 13.6923 15.5775 13.6613C15.7172 13.6309 15.8617 13.7015 15.9223 13.8325L16.971 16.097Z" fill="#4A4A4A"/>
</svg>
