<svg width="30px" height="30px" viewBox="0 0 20 20" fill="none" xmlns="http://www.w3.org/2000/svg">
<path d="M0.937012 17.188C0.764199 17.188 0.624512 17.0483 0.624512 16.8755C0.624512 15.3246 1.88607 14.063 3.43701 14.063C3.60982 14.063 3.74951 14.2027 3.74951 14.3755C3.74951 14.5483 3.60982 14.688 3.43701 14.688C2.23107 14.688 1.24951 15.6696 1.24951 16.8755C1.24951 17.0483 1.10982 17.188 0.937012 17.188Z" fill="#4A4A4A"/>
<path d="M5.31201 14.6883L3.43701 14.688C3.2642 14.688 3.12451 14.548 3.12451 14.3755C3.12451 14.2027 3.26451 14.063 3.43701 14.063L5.31201 14.0633C5.48482 14.0633 5.6245 14.2033 5.6245 14.3758C5.6245 14.5486 5.4845 14.6883 5.31201 14.6883Z" fill="#4A4A4A"/>
<path d="M10.9858 14.6881L9.68701 14.6875C9.5142 14.6875 9.37451 14.5475 9.37451 14.375C9.37451 14.2022 9.51451 14.0625 9.68701 14.0625L10.9858 14.0631C11.1586 14.0631 11.2983 14.2031 11.2983 14.3756C11.2983 14.5484 11.1583 14.6881 10.9858 14.6881Z" fill="#4A4A4A"/>
<path d="M0.937637 19.3752C0.765137 19.3752 0.625137 19.2355 0.625137 19.0627L0.624512 16.8755C0.624512 16.703 0.764199 16.563 0.937012 16.563C1.10951 16.563 1.24951 16.7027 1.24951 16.8755L1.25014 19.0627C1.25014 19.2352 1.11045 19.3752 0.937637 19.3752Z" fill="#4A4A4A"/>
<path d="M5.31201 14.6884C5.1392 14.6884 4.99951 14.5487 4.99951 14.3759V12.585C4.99951 12.4121 5.1392 12.2725 5.31201 12.2725C5.48482 12.2725 5.6245 12.4121 5.6245 12.585V14.3759C5.6245 14.5487 5.48482 14.6884 5.31201 14.6884Z" fill="#4A4A4A"/>
<path d="M9.68701 14.6878C9.5142 14.6878 9.37451 14.5481 9.37451 14.3753V12.585C9.37451 12.4121 9.5142 12.2725 9.68701 12.2725C9.85982 12.2725 9.99951 12.4121 9.99951 12.585V14.3753C9.99951 14.5481 9.85982 14.6878 9.68701 14.6878Z" fill="#4A4A4A"/>
<path d="M7.49951 13.438C4.74264 13.438 2.49951 11.1949 2.49951 8.43799C2.49951 8.26518 2.6392 8.12549 2.81201 8.12549C2.98482 8.12549 3.12451 8.26518 3.12451 8.43799C3.12451 10.8505 5.08701 12.813 7.49951 12.813C9.91201 12.813 11.8745 10.8505 11.8745 8.43799C11.8745 8.26518 12.0142 8.12549 12.187 8.12549C12.3598 8.12549 12.4995 8.26518 12.4995 8.43799C12.4995 11.1949 10.2564 13.438 7.49951 13.438Z" fill="#4A4A4A"/>
<path d="M2.81201 8.75031C2.6392 8.75031 2.49951 8.61063 2.49951 8.43781V5C2.49951 4.82719 2.6392 4.6875 2.81201 4.6875C2.98482 4.6875 3.12451 4.82719 3.12451 5V8.43781C3.12451 8.61063 2.98482 8.75031 2.81201 8.75031Z" fill="#4A4A4A"/>
<path d="M12.187 8.75017C12.0142 8.75017 11.8745 8.61048 11.8745 8.43767V4.68799C11.8745 4.51518 12.0142 4.37549 12.187 4.37549C12.3598 4.37549 12.4995 4.51518 12.4995 4.68799V8.43767C12.4995 8.61048 12.3598 8.75017 12.187 8.75017Z" fill="#4A4A4A"/>
<path d="M12.187 5.0005C12.0142 5.0005 11.8745 4.86081 11.8745 4.68799C11.8745 3.65393 11.0336 2.81299 9.99951 2.81299C9.8267 2.81299 9.68701 2.6733 9.68701 2.50049C9.68701 2.32768 9.8267 2.18799 9.99951 2.18799C11.378 2.18799 12.4995 3.30955 12.4995 4.68799C12.4995 4.86081 12.3598 5.0005 12.187 5.0005Z" fill="#4A4A4A"/>
<path d="M9.99952 2.81312C9.8267 2.81312 9.68701 2.67344 9.68701 2.50062V0.9375C9.68701 0.764688 9.8267 0.625 9.99952 0.625C10.1723 0.625 10.312 0.764688 10.312 0.9375V2.50062C10.312 2.67344 10.1723 2.81312 9.99952 2.81312Z" fill="#4A4A4A"/>
<path d="M9.99953 1.25H6.87451C6.7017 1.25 6.56201 1.11031 6.56201 0.9375C6.56201 0.764688 6.7017 0.625 6.87451 0.625H9.99953C10.1723 0.625 10.312 0.764688 10.312 0.9375C10.312 1.11031 10.1723 1.25 9.99953 1.25Z" fill="#4A4A4A"/>
<path d="M2.81201 5.3125C2.6392 5.3125 2.49951 5.17281 2.49951 5C2.49951 2.5875 4.46201 0.625 6.8745 0.625C7.04732 0.625 7.187 0.764688 7.187 0.9375C7.187 1.11031 7.04732 1.25 6.8745 1.25C4.8067 1.25 3.12451 2.93219 3.12451 5C3.12451 5.17281 2.98482 5.3125 2.81201 5.3125Z" fill="#4A4A4A"/>
<path d="M12.1871 6.87507C12.1071 6.87507 12.0271 6.84445 11.9661 6.78351L10.7162 5.53351C10.594 5.41133 10.594 5.21383 10.7162 5.09164C10.8383 4.96945 11.0358 4.96945 11.158 5.09164L12.408 6.34164C12.5302 6.46382 12.5302 6.66132 12.408 6.78351C12.3471 6.84445 12.2671 6.87507 12.1871 6.87507Z" fill="#4A4A4A"/>
<path d="M7.49951 6.56223C5.56014 6.56223 3.96795 5.62004 3.90108 5.58004C3.75327 5.49129 3.70545 5.29973 3.79389 5.1516C3.88233 5.0041 4.07327 4.95504 4.22233 5.04379C4.23764 5.05317 5.73826 5.93723 7.49951 5.93723C9.26076 5.93723 10.7614 5.05317 10.7764 5.0441C10.9258 4.95535 11.1164 5.00442 11.2048 5.15192C11.2933 5.30004 11.2454 5.4916 11.0976 5.58035C11.0311 5.62004 9.43888 6.56223 7.49951 6.56223Z" fill="#4A4A4A"/>
<path d="M2.81209 6.87507C2.73209 6.87507 2.65209 6.84445 2.59115 6.78351C2.46896 6.66132 2.46896 6.46382 2.59115 6.34164L3.84115 5.09164C3.96334 4.96945 4.16084 4.96945 4.28303 5.09164C4.40521 5.21383 4.40521 5.41133 4.28303 5.53351L3.03303 6.78351C2.97209 6.84445 2.89209 6.87507 2.81209 6.87507Z" fill="#4A4A4A"/>
<path d="M6.24929 15.3124C6.18992 15.3124 6.1296 15.2952 6.07617 15.2599L5.13867 14.6355C4.99523 14.5399 4.95617 14.3458 5.05211 14.2021C5.14773 14.0583 5.34117 14.0199 5.48554 14.1155L6.42304 14.7399C6.56648 14.8355 6.60554 15.0296 6.5096 15.1733C6.4496 15.2637 6.35023 15.3124 6.24929 15.3124Z" fill="#4A4A4A"/>
<path d="M6.24935 15.3129C6.10935 15.3129 5.98216 15.2182 5.94654 15.076C5.90435 14.9085 6.00623 14.7391 6.17404 14.6972L7.42404 14.385C7.59091 14.3428 7.76091 14.4444 7.80279 14.6125C7.84497 14.78 7.7431 14.9494 7.57529 14.9913L6.32529 15.3035C6.29998 15.3097 6.27435 15.3129 6.24935 15.3129Z" fill="#4A4A4A"/>
<path d="M8.74992 15.3124C8.64898 15.3124 8.54961 15.2637 8.48961 15.1733C8.39367 15.0296 8.43273 14.8355 8.57617 14.7399L9.51367 14.1155C9.65742 14.0199 9.85117 14.0583 9.9471 14.2021C10.043 14.3458 10.004 14.5399 9.86054 14.6355L8.92304 15.2599C8.86961 15.2952 8.8093 15.3124 8.74992 15.3124Z" fill="#4A4A4A"/>
<path d="M8.74985 15.3128C8.72485 15.3128 8.69922 15.3097 8.67391 15.3034L7.42392 14.9912C7.25642 14.9493 7.15454 14.78 7.19642 14.6125C7.23798 14.4453 7.40735 14.3428 7.57517 14.385L8.82516 14.6972C8.99266 14.739 9.09454 14.9084 9.05266 15.0759C9.01704 15.2178 8.88985 15.3128 8.74985 15.3128Z" fill="#4A4A4A"/>
<path d="M7.50889 16.5625C7.33607 16.5625 7.19482 16.4228 7.19482 16.25C7.19482 16.0772 7.33295 15.9375 7.50545 15.9375H7.50889C7.68139 15.9375 7.82139 16.0772 7.82139 16.25C7.82139 16.4228 7.68139 16.5625 7.50889 16.5625Z" fill="#4A4A4A"/>
<path d="M7.50889 18.438C7.33607 18.438 7.19482 18.2983 7.19482 18.1255C7.19482 17.9527 7.33295 17.813 7.50545 17.813H7.50889C7.68139 17.813 7.82139 17.9527 7.82139 18.1255C7.82139 18.2983 7.68139 18.438 7.50889 18.438Z" fill="#4A4A4A"/>
<path d="M15.001 19.3753C12.5885 19.3753 10.626 17.4125 10.626 14.9993C10.626 12.5868 12.5885 10.624 15.001 10.624C17.4135 10.624 19.376 12.5868 19.376 14.9993C19.376 17.4125 17.4135 19.3753 15.001 19.3753ZM15.001 11.249C12.9332 11.249 11.251 12.9315 11.251 14.9993C11.251 17.0675 12.9332 18.7503 15.001 18.7503C17.0688 18.7503 18.751 17.0675 18.751 14.9993C18.751 12.9315 17.0688 11.249 15.001 11.249Z" fill="#4A4A4A"/>
<path d="M15.001 18.4378C13.1057 18.4378 11.5635 16.8953 11.5635 14.9993C11.5635 13.1037 13.1057 11.5615 15.001 11.5615C16.8963 11.5615 18.4385 13.1037 18.4385 14.9993C18.4385 16.8953 16.8963 18.4378 15.001 18.4378ZM15.001 12.1865C13.45 12.1865 12.1885 13.4484 12.1885 14.9993C12.1885 16.5506 13.45 17.8128 15.001 17.8128C16.5519 17.8128 17.8135 16.5506 17.8135 14.9993C17.8135 13.4484 16.5519 12.1865 15.001 12.1865Z" fill="#4A4A4A"/>
<path d="M15.001 15.9363C14.4841 15.9363 14.0635 15.5157 14.0635 14.9988C14.0635 14.482 14.4841 14.061 15.001 14.061C15.5179 14.061 15.9385 14.482 15.9385 14.9988C15.9385 15.5157 15.5179 15.9363 15.001 15.9363ZM15.001 14.686C14.8285 14.686 14.6885 14.8263 14.6885 14.9988C14.6885 15.1713 14.8285 15.3113 15.001 15.3113C15.1735 15.3113 15.3135 15.1713 15.3135 14.9988C15.3135 14.8263 15.1735 14.686 15.001 14.686Z" fill="#4A4A4A"/>
<path d="M17.7077 13.749H12.2939C12.1211 13.749 11.9814 13.6093 11.9814 13.4365C11.9814 13.2637 12.1211 13.124 12.2939 13.124H17.7077C17.8805 13.124 18.0202 13.2637 18.0202 13.4365C18.0202 13.6093 17.8805 13.749 17.7077 13.749Z" fill="#4A4A4A"/>
<path d="M15.6265 18.3718C15.6247 18.3718 15.6225 18.3718 15.6206 18.3718C15.4478 18.3684 15.3106 18.2259 15.314 18.0534C15.3456 16.3924 16.439 14.9718 18.035 14.5181C18.2015 14.4703 18.3737 14.5671 18.4209 14.7331C18.4681 14.899 18.3718 15.0718 18.2059 15.119C16.8762 15.4971 15.9653 16.6809 15.939 18.0649C15.9356 18.2359 15.7965 18.3718 15.6265 18.3718Z" fill="#4A4A4A"/>
<path d="M14.3763 18.3751C14.2063 18.3751 14.0669 18.2385 14.0638 18.0682C14.0391 16.6819 13.1282 15.4969 11.7966 15.1191C11.6304 15.0722 11.5341 14.8994 11.5813 14.7335C11.6282 14.5672 11.8016 14.4701 11.967 14.5182C13.5654 14.9716 14.6591 16.3938 14.6888 18.0572C14.6919 18.2297 14.5544 18.3722 14.3819 18.3754C14.3801 18.3751 14.3782 18.3751 14.3763 18.3751Z" fill="#4A4A4A"/>
</svg>
