<svg width="16" height="16" viewBox="0 0 16 16" fill="none" xmlns="http://www.w3.org/2000/svg">
<path d="M13.7735 1.09887C12.9671 0.293865 11.6611 0.293865 10.8547 1.09887L10.1241 1.83351L2.34658 9.60688L2.33005 9.62354C2.32605 9.62754 2.32605 9.6318 2.32179 9.6318C2.31352 9.6442 2.30113 9.65647 2.29299 9.66887C2.29299 9.673 2.28873 9.673 2.28873 9.67713C2.28046 9.68953 2.27646 9.69779 2.26807 9.71019C2.26406 9.71432 2.26406 9.71832 2.25993 9.72258C2.2558 9.73498 2.25167 9.74325 2.24741 9.75564C2.24741 9.75965 2.2434 9.75965 2.2434 9.76391L0.51781 14.953C0.46719 15.1007 0.505671 15.2643 0.616854 15.3739C0.694979 15.451 0.800351 15.4942 0.909984 15.4938C0.954793 15.493 0.999214 15.486 1.04209 15.4731L6.22713 13.7434C6.23114 13.7434 6.23114 13.7434 6.2354 13.7394C6.24844 13.7355 6.26097 13.7299 6.27246 13.7227C6.27569 13.7223 6.27853 13.7209 6.28085 13.7187C6.29312 13.7104 6.30965 13.7021 6.32205 13.6938C6.33431 13.6857 6.34684 13.6733 6.35924 13.665C6.36337 13.6607 6.36737 13.6607 6.36737 13.6567C6.37163 13.6526 6.3799 13.6486 6.38403 13.6402L14.8922 5.13206C15.6972 4.32563 15.6972 3.01972 14.8922 2.21342L13.7735 1.09887ZM6.09503 12.7732L3.22184 9.90014L10.4131 2.7089L13.2863 5.58196L6.09503 12.7732ZM2.81714 10.6638L5.32721 13.1738L1.5581 14.4287L2.81714 10.6638ZM14.3102 4.55407L13.8725 4.99583L10.9992 2.12251L11.4411 1.68087C11.9244 1.19792 12.7079 1.19792 13.1914 1.68087L14.3142 2.80368C14.7939 3.28922 14.7921 4.07085 14.3102 4.55407Z" fill="#F56D84"/>
</svg>
