<svg width="19" height="20" viewBox="0 0 19 20" fill="green" xmlns="http://www.w3.org/2000/svg">
<path d="M15.7313 10.9961C15.5471 10.9961 15.3978 11.1454 15.3978 11.3296V19C15.3978 19.1842 15.2485 19.3335 15.0644 19.3335H11.7294V14.331C11.7294 13.7785 11.2815 13.3305 10.7289 13.3305H7.39398C6.84145 13.3305 6.3935 13.7785 6.3935 14.331V19.3335H3.05855C2.87436 19.3335 2.72507 19.1842 2.72507 19V11.3296C2.72507 11.1454 2.57578 10.9961 2.39159 10.9961C2.2074 10.9961 2.05811 11.1454 2.05811 11.3296V19C2.05811 19.5525 2.50602 20.0005 3.05859 20.0005H15.0644C15.617 20.0005 16.0649 19.5526 16.0649 19V11.3296C16.0648 11.1454 15.9155 10.9961 15.7313 10.9961ZM11.0624 19.3335H7.06046V14.331C7.06046 14.1468 7.20975 13.9976 7.39394 13.9976H10.7289C10.9131 13.9976 11.0624 14.1468 11.0624 14.331V19.3335H11.0624Z" fill="#4A4A4A"/>
<path d="M17.8336 8.59078L9.77229 0.292408C9.3787 -0.0974693 8.74452 -0.0974693 8.35093 0.292408L0.290688 8.59078C0.00168003 8.8887 -0.0802348 9.33098 0.0829305 9.71265C0.234371 10.0861 0.597712 10.33 1.00072 10.3286H1.11476C1.35327 10.3263 1.58296 10.2381 1.76175 10.0802C1.78556 10.0647 1.80787 10.047 1.82847 10.0275L9.06163 2.57653L16.3002 10.0315C16.3195 10.0498 16.3403 10.0664 16.3625 10.0812C16.5412 10.2385 16.7705 10.3263 17.0085 10.3286H17.1225C17.5259 10.3304 17.8898 10.0865 18.0413 9.71265C18.2045 9.33098 18.1226 8.8887 17.8336 8.59078ZM17.427 9.45319C17.3775 9.57817 17.257 9.66064 17.1225 9.66161H17.0085C16.9203 9.66165 16.8359 9.62546 16.7751 9.56156C16.7727 9.55891 16.7691 9.55824 16.7667 9.5559C16.7644 9.55355 16.7621 9.54988 16.7591 9.54757L9.30073 1.86552L9.29675 1.86286L9.29507 1.85786C9.279 1.84504 9.26169 1.83386 9.24336 1.82452C9.22609 1.81072 9.20741 1.79877 9.18767 1.78884C9.16719 1.78223 9.14605 1.77774 9.12463 1.77551C9.08457 1.76086 9.04061 1.76086 9.00059 1.77551C8.97917 1.77778 8.95807 1.78223 8.93755 1.78884C8.91781 1.7988 8.89913 1.81076 8.88186 1.82452C8.86353 1.83386 8.84622 1.84504 8.83015 1.85786L8.8275 1.86184L8.82351 1.8645L1.36355 9.54757C1.36054 9.54992 1.35922 9.55324 1.35621 9.55558C1.3532 9.55793 1.34987 9.55891 1.34753 9.5616C1.28668 9.6255 1.2023 9.66169 1.1141 9.66165H1.00072C0.866241 9.66068 0.745831 9.57821 0.696237 9.45323C0.637028 9.31836 0.665362 9.16106 0.767951 9.05538H0.767248L8.82816 0.757321C8.88964 0.695377 8.97331 0.660517 9.06062 0.660517C9.14789 0.660517 9.23156 0.695377 9.29307 0.757321L17.3553 9.05534C17.4579 9.16106 17.4862 9.31832 17.427 9.45319Z" fill="#4A4A4A"/>
<path d="M8.06101 16.3315H7.72752C7.54333 16.3315 7.39404 16.4808 7.39404 16.665C7.39404 16.8492 7.54333 16.9985 7.72752 16.9985H8.06101C8.2452 16.9985 8.39449 16.8492 8.39449 16.665C8.39449 16.4808 8.24516 16.3315 8.06101 16.3315Z" fill="#4A4A4A"/>
</svg>
