<svg width="158" height="51" viewBox="0 0 158 51" fill="none" xmlns="http://www.w3.org/2000/svg">
<path d="M47.3054 23.5595C47.1666 20.3813 48.1904 16.4605 50.4984 14.146C50.3422 14.2151 47.0277 15.3033 45.1883 14.7506C41.1102 13.5933 39.8087 9.60341 39.8087 5.82077C39.8087 4.47353 40.0169 3.31629 40.1558 2.03813C28.8066 14.5606 23.7047 0.414536 23.5659 0C23.5312 0.138179 23.5139 0.259085 23.4965 0.397264C22.8197 2.86721 21.1191 6.85711 18.5681 8.13527C15.5139 9.65523 11.2277 7.928 9.28407 5.19897C10.7071 11.1925 7.44461 18.9996 0 17.376C3.47068 20.4159 4.99778 24.6822 4.5813 29.2593C4.39041 31.0038 3.62686 34.8901 1.59651 35.581C1.59651 35.581 1.35357 35.6501 1.31886 35.6501C1.31886 35.6501 5.60515 35.4428 7.6355 36.4273C10.7591 37.8437 12.5986 41.0218 13.0151 44.3381C13.1539 45.4953 12.9456 46.7044 13.0151 47.8616C15.6701 45.3571 18.7937 44.079 22.4727 45.0117C25.2666 45.7371 28.3902 47.1189 29.2231 50.107L29.2752 50.3661C29.2752 50.3315 29.414 49.4852 29.4661 49.0879C30.0908 46.8771 32.1212 44.649 33.7697 43.4572C36.3554 41.6263 40.0864 41.6263 43.1579 42.0408C43.6265 42.1099 44.2512 42.179 44.7197 42.3863C42.3423 40.8318 43.505 35.7537 44.8412 34.3892C46.7674 32.4029 51.9908 31.3665 51.9908 31.3665C48.3986 31.3493 47.3748 26.3403 47.3054 23.5595Z" fill="#FFDD65"/>
<path d="M14.1808 35.7607C14.1492 35.7607 14.1177 35.823 14.1177 35.8852L14.1808 35.7607Z" fill="#FFB41D"/>
<path d="M14.0542 36.5342C14.0859 36.5342 14.0859 36.5029 14.0542 36.5342C14.0542 36.5029 14.0542 36.5342 14.0542 36.5342Z" fill="#FFB41D"/>
<path d="M14.1178 35.8853L14.0859 35.9481C14.0859 35.9167 14.0859 35.9167 14.1178 35.8853Z" fill="#FFB41D"/>
<path d="M16.1584 20.4704C16.1269 20.4393 16.0953 20.5015 16.0322 20.5326L16.1584 20.4704Z" fill="#FFB41D"/>
<path d="M15.751 21.1201C15.7827 21.1514 15.7827 21.1514 15.751 21.1201C15.7827 21.1201 15.751 21.1514 15.751 21.1201Z" fill="#FFB41D"/>
<path d="M16.0354 20.5632L15.9717 20.5947C16.0035 20.5947 16.0354 20.5632 16.0354 20.5632Z" fill="#FFB41D"/>
<path d="M69.1744 21.7276C68.7585 21.1244 68.1969 20.6877 67.4898 20.4173C66.8035 20.1262 66.0756 19.9806 65.3061 19.9806C64.8485 19.9806 64.4014 20.0326 63.9646 20.1366C63.5487 20.2405 63.1639 20.4069 62.8104 20.6357C62.4776 20.8645 62.2072 21.166 61.9993 21.5404C61.7913 21.8939 61.6873 22.3203 61.6873 22.8194C61.6873 23.5682 61.9473 24.1401 62.4672 24.5352C62.9871 24.9304 63.6319 25.2736 64.4014 25.5647C65.1709 25.8559 66.0132 26.1367 66.9283 26.407C67.8434 26.6774 68.6857 27.0517 69.4552 27.5301C70.2247 28.0084 70.8694 28.6428 71.3894 29.4331C71.9093 30.2234 72.1693 31.2737 72.1693 32.5839C72.1693 33.7694 71.9509 34.8092 71.5142 35.7035C71.0774 36.577 70.4847 37.305 69.736 37.8873C69.008 38.4696 68.1553 38.9064 67.1779 39.1975C66.2004 39.4887 65.1709 39.6343 64.0894 39.6343C62.7168 39.6343 61.3961 39.4055 60.1275 38.948C58.8588 38.4904 57.7669 37.7209 56.8519 36.6394L59.8155 33.7694C60.2939 34.4973 60.9178 35.0692 61.6873 35.4852C62.4776 35.8803 63.3095 36.0779 64.183 36.0779C64.6405 36.0779 65.0981 36.0155 65.5556 35.8907C66.0132 35.7659 66.4291 35.5788 66.8035 35.3292C67.1779 35.0796 67.4794 34.7677 67.7082 34.3933C67.937 33.9981 68.0514 33.551 68.0514 33.0519C68.0514 32.2407 67.7914 31.6168 67.2714 31.1801C66.7515 30.7433 66.1068 30.3794 65.3373 30.0882C64.5678 29.7762 63.7255 29.4851 62.8104 29.2147C61.8953 28.9443 61.053 28.5804 60.2835 28.1228C59.5139 27.6445 58.8692 27.0206 58.3493 26.251C57.8293 25.4607 57.5694 24.4105 57.5694 23.1002C57.5694 21.9563 57.7981 20.9685 58.2557 20.1366C58.734 19.3046 59.3476 18.6183 60.0963 18.0776C60.8658 17.5161 61.7393 17.1001 62.7168 16.8297C63.6943 16.5594 64.6925 16.4242 65.7116 16.4242C66.8763 16.4242 67.9994 16.601 69.0808 16.9545C70.1831 17.3081 71.171 17.8904 72.0445 18.7015L69.1744 21.7276ZM81.535 26.1886H81.5974C81.8886 25.5647 82.3981 25.0032 83.126 24.504C83.8747 23.9841 84.8314 23.7241 85.9961 23.7241C86.9944 23.7241 87.8367 23.8905 88.523 24.2233C89.2301 24.556 89.8021 24.9928 90.2388 25.5335C90.6756 26.0743 90.9875 26.6982 91.1747 27.4053C91.3619 28.1124 91.4555 28.8507 91.4555 29.6203V39.0728H87.7119V31.492C87.7119 31.0761 87.6911 30.6185 87.6495 30.1194C87.6079 29.5995 87.4935 29.1211 87.3063 28.6844C87.14 28.2268 86.8696 27.8525 86.4952 27.5613C86.1209 27.2493 85.6113 27.0933 84.9666 27.0933C84.3427 27.0933 83.8123 27.1973 83.3756 27.4053C82.9596 27.6133 82.6061 27.8941 82.3149 28.2476C82.0446 28.6012 81.847 29.0067 81.7222 29.4643C81.5974 29.9218 81.535 30.4002 81.535 30.8993V39.0728H77.7914V15.4883H81.535V26.1886ZM106.936 37.0138H106.842C106.301 37.8665 105.615 38.4904 104.783 38.8856C103.951 39.2599 103.036 39.4471 102.038 39.4471C101.352 39.4471 100.676 39.3535 100.01 39.1663C99.3654 38.9792 98.783 38.6984 98.2631 38.324C97.764 37.9497 97.3584 37.4817 97.0464 36.9202C96.7345 36.3587 96.5785 35.7035 96.5785 34.9548C96.5785 34.1437 96.7241 33.4574 97.0152 32.8959C97.3064 32.3135 97.6912 31.8352 98.1695 31.4608C98.6686 31.0657 99.2406 30.7537 99.8853 30.5249C100.53 30.2962 101.196 30.1298 101.882 30.0258C102.589 29.901 103.296 29.8282 104.003 29.8074C104.71 29.7658 105.376 29.745 106 29.745H106.936V29.3395C106.936 28.4036 106.613 27.7069 105.969 27.2493C105.324 26.771 104.502 26.5318 103.504 26.5318C102.714 26.5318 101.975 26.6774 101.289 26.9686C100.603 27.2389 100.01 27.6133 99.511 28.0916L97.5456 26.1263C98.3775 25.2736 99.3446 24.66 100.447 24.2857C101.57 23.9113 102.724 23.7241 103.91 23.7241C104.97 23.7241 105.865 23.8489 106.593 24.0985C107.32 24.3273 107.924 24.6288 108.402 25.0032C108.88 25.3775 109.244 25.8143 109.494 26.3134C109.764 26.7918 109.951 27.2805 110.055 27.7797C110.18 28.2788 110.253 28.7675 110.274 29.2459C110.294 29.7034 110.305 30.109 110.305 30.4626V39.0728H106.936V37.0138ZM106.717 32.3655H105.937C105.417 32.3655 104.835 32.3863 104.19 32.4279C103.546 32.4695 102.932 32.5735 102.35 32.7399C101.788 32.8855 101.31 33.1142 100.915 33.4262C100.52 33.7174 100.322 34.1333 100.322 34.6741C100.322 35.0276 100.395 35.3292 100.54 35.5788C100.707 35.8075 100.915 36.0051 101.164 36.1715C101.414 36.3379 101.695 36.4627 102.007 36.5458C102.319 36.6082 102.631 36.6394 102.943 36.6394C104.232 36.6394 105.178 36.3379 105.781 35.7347C106.405 35.1108 106.717 34.2685 106.717 33.2078V32.3655ZM116.048 24.0985H119.605V26.4382H119.667C120 25.7311 120.53 25.1072 121.258 24.5664C122.007 24.0049 123.005 23.7241 124.253 23.7241C126.603 23.7241 128.163 24.6496 128.933 26.5006C129.473 25.5439 130.149 24.8472 130.96 24.4105C131.771 23.9529 132.739 23.7241 133.862 23.7241C134.86 23.7241 135.702 23.8905 136.388 24.2233C137.075 24.556 137.626 25.0136 138.042 25.5959C138.479 26.1783 138.791 26.8646 138.978 27.6549C139.165 28.4244 139.259 29.2563 139.259 30.1506V39.0728H135.515V30.5873C135.515 30.1298 135.473 29.693 135.39 29.2771C135.307 28.8403 135.161 28.466 134.953 28.154C134.745 27.8213 134.465 27.5613 134.111 27.3741C133.758 27.1869 133.3 27.0933 132.739 27.0933C132.156 27.0933 131.657 27.2077 131.241 27.4365C130.846 27.6445 130.513 27.9356 130.243 28.31C129.993 28.6636 129.806 29.0795 129.681 29.5579C129.577 30.0154 129.525 30.4834 129.525 30.9617V39.0728H125.782V30.1506C125.782 29.2147 125.584 28.4764 125.189 27.9356C124.794 27.3741 124.139 27.0933 123.224 27.0933C122.6 27.0933 122.069 27.1973 121.633 27.4053C121.217 27.6133 120.863 27.8941 120.572 28.2476C120.302 28.6012 120.104 29.0067 119.979 29.4643C119.854 29.9218 119.792 30.4002 119.792 30.8993V39.0728H116.048V24.0985ZM153.207 28.2476C152.479 27.2285 151.502 26.719 150.275 26.719C149.775 26.719 149.287 26.8438 148.808 27.0933C148.33 27.3429 148.091 27.7485 148.091 28.31C148.091 28.7675 148.288 29.1003 148.684 29.3083C149.079 29.5163 149.578 29.693 150.181 29.8386C150.784 29.9842 151.429 30.1402 152.115 30.3066C152.822 30.4522 153.477 30.6913 154.08 31.0241C154.684 31.3361 155.183 31.7728 155.578 32.3343C155.973 32.8959 156.171 33.6654 156.171 34.6429C156.171 35.5372 155.973 36.2963 155.578 36.9202C155.204 37.5233 154.704 38.0121 154.08 38.3864C153.477 38.7608 152.791 39.0312 152.022 39.1975C151.252 39.3639 150.483 39.4471 149.713 39.4471C148.548 39.4471 147.477 39.2807 146.5 38.948C145.522 38.6152 144.649 38.0121 143.879 37.1386L146.375 34.7988C146.853 35.3396 147.363 35.7867 147.904 36.1403C148.465 36.4731 149.141 36.6394 149.931 36.6394C150.202 36.6394 150.483 36.6082 150.774 36.5458C151.065 36.4835 151.335 36.3795 151.585 36.2339C151.834 36.0883 152.032 35.9115 152.178 35.7035C152.344 35.4748 152.427 35.2148 152.427 34.9236C152.427 34.4037 152.229 34.0189 151.834 33.7694C151.439 33.5198 150.94 33.3222 150.337 33.1766C149.734 33.0103 149.079 32.8647 148.372 32.7399C147.685 32.5943 147.041 32.3759 146.437 32.0848C145.834 31.7728 145.335 31.3465 144.94 30.8057C144.545 30.265 144.347 29.5163 144.347 28.5596C144.347 27.7277 144.514 27.0102 144.846 26.407C145.2 25.7831 145.657 25.2736 146.219 24.8784C146.781 24.4832 147.425 24.1921 148.153 24.0049C148.881 23.8177 149.619 23.7241 150.368 23.7241C151.366 23.7241 152.354 23.9009 153.332 24.2545C154.309 24.5872 155.1 25.1696 155.703 26.0015L153.207 28.2476Z" fill="#454545"/>
<path d="M32.1973 42.5343C41.3344 39.1061 45.9623 28.9199 42.5341 19.7827C39.1058 10.6456 28.9196 6.01768 19.7825 9.44593C10.6454 12.8742 6.01742 23.0604 9.44567 32.1975C12.8739 41.3346 23.0602 45.9626 32.1973 42.5343Z" fill="#FFBA31"/>
<path d="M26.4012 43.8671C16.7597 43.8671 8.93555 36.043 8.93555 26.4015C8.93555 16.7599 16.7597 8.93579 26.4012 8.93579C36.0427 8.93579 43.8669 16.7599 43.8669 26.4015C43.8669 36.043 36.0427 43.8671 26.4012 43.8671Z" fill="#FFBA31"/>
<path d="M35.9803 33.4517C37.17 31.9917 38.0352 30.2884 38.4678 28.5039C38.5489 28.2876 38.5759 28.0713 38.6029 27.828C38.657 27.6117 38.6841 27.3683 38.7111 27.152C38.7381 26.9357 38.7381 26.7465 38.7652 26.5302C38.7652 26.3139 38.7652 26.0976 38.7652 25.8813C38.7381 25.0161 38.5759 24.1239 38.3596 23.2857C38.6841 24.6376 38.8733 26.0165 38.6841 27.2872C38.8192 26.3409 38.7652 25.4217 38.63 24.4754C38.4948 23.5291 38.2785 22.5557 37.9541 21.5283C38.0352 21.6635 38.1163 21.8798 38.1703 22.0961C38.2244 22.3124 38.3055 22.5557 38.3866 22.772C38.5218 23.2317 38.63 23.6372 38.7111 23.7994C38.7652 24.1239 38.8463 24.4213 38.8733 24.7457C38.9004 24.908 38.9274 25.0702 38.9274 25.2324L38.9544 25.692C38.9815 25.8543 38.9544 25.9894 38.9544 26.1517C38.9544 26.3139 38.9544 26.4491 38.9544 26.6113L38.9004 27.0439C38.9004 27.1791 38.8463 27.3413 38.8192 27.5035C38.63 28.7472 38.1703 29.9639 37.5755 31.0724C36.494 33.3165 34.5744 35.0739 32.4385 36.1554C32.6277 35.9932 32.817 35.858 32.9792 35.7499C33.1685 35.6147 33.3307 35.5336 33.4929 35.3984C33.6551 35.2902 33.8174 35.1821 33.9526 35.0739C34.1148 34.9658 34.277 34.8847 34.4122 34.7765C34.6826 34.5602 34.98 34.371 35.2233 34.1547C35.4937 33.9384 35.737 33.695 35.9803 33.4517Z" fill="white"/>
<path d="M35.4937 16.4719C35.7911 16.8234 36.0885 17.2019 36.3588 17.6345C36.0614 17.2019 35.764 16.8234 35.4937 16.4719Z" fill="white"/>
<path d="M16.73 20.9872C17.0544 20.4465 17.4329 19.9328 17.8385 19.4731C17.4329 19.9598 17.0544 20.4735 16.73 20.9872Z" fill="white"/>
<path d="M58.5606 31.7354C58.512 31.7516 58.4795 31.7679 58.4309 31.7841L58.3011 31.8327C58.2038 31.8652 58.1226 31.8814 58.0253 31.9139L57.7657 31.9787L57.49 32.0112C57.3115 32.0274 57.1331 32.0599 56.9384 32.0761C56.76 32.0761 56.5653 32.0761 56.3869 32.0923C56.2895 32.0923 56.2084 32.0923 56.1111 32.0761L55.8353 32.0436L55.5595 32.0112C55.4622 31.995 55.3811 31.9787 55.2837 31.9625C55.1053 31.9301 54.9106 31.8976 54.7322 31.849C54.5537 31.8003 54.3753 31.7516 54.1968 31.703C54.0995 31.6867 54.0184 31.6543 53.9373 31.6056L53.6777 31.5083C54.424 31.8003 55.2675 31.995 56.1111 32.0112C56.9384 32.0436 57.782 31.9301 58.5606 31.7354Z" fill="white"/>
<path d="M33.3042 36.8042L33.7098 36.5608C33.8449 36.4797 33.9801 36.3986 34.1153 36.2905L34.8724 35.7227C35.359 35.3171 35.8457 34.9116 36.2783 34.4519C36.7379 34.0193 37.1164 33.5056 37.495 33.046C37.8464 32.5323 38.225 32.0456 38.4953 31.5049C38.225 32.0456 37.8464 32.5323 37.522 33.046C37.1164 33.5327 36.765 34.0193 36.3053 34.4519C35.8727 34.9116 35.3861 35.3171 34.8994 35.7227C34.629 35.9119 34.3857 36.1012 34.1153 36.2634C33.9801 36.3716 33.8449 36.4527 33.7098 36.5338L33.3042 36.8042Z" fill="white"/>
<path d="M34.0332 18.6893C34.0332 18.6623 34.0873 18.6893 34.1414 18.7704C34.1954 18.8516 34.2495 18.9056 34.3036 18.9327C34.9795 19.933 35.4662 21.1227 35.6554 22.3393C35.6014 22.0419 35.4662 21.7716 35.3851 21.5012C35.2769 21.1768 35.2228 20.9064 35.1417 20.6901C35.0606 20.4738 34.9795 20.2575 34.8984 20.0682C34.7091 19.6627 34.4928 19.2571 34.0332 18.6893Z" fill="white"/>
<path d="M16.3791 21.582L16.3521 21.6361C16.271 21.8254 16.1628 22.0146 16.0817 22.2039C16.0817 22.2309 16.0547 22.258 16.0547 22.258C16.1358 22.0417 16.2439 21.8254 16.3791 21.582Z" fill="white"/>
<path d="M33.0607 17.5535C33.0878 17.4994 33.0878 17.4724 33.0337 17.3643C33.4933 17.8509 33.9259 18.3646 34.3044 18.9324C34.2504 18.8783 34.1963 18.8243 34.1422 18.7702C33.8718 18.4187 33.4392 17.8509 33.0607 17.5535Z" fill="white"/>
<path d="M19.0275 16.3097C18.8653 16.4178 18.703 16.526 18.5678 16.6341C18.4327 16.7693 18.2975 16.8775 18.2164 16.9586C17.216 17.6345 16.4319 18.4186 15.6208 19.446C15.5126 19.6082 15.2693 19.9867 15.1071 20.3382C14.9449 20.5275 14.7826 20.7167 14.6475 20.9601C15.3504 19.6893 16.1886 18.5267 17.3241 17.4993C17.4593 17.3641 17.6215 17.229 17.7567 17.1208C17.919 16.9856 18.0541 16.8775 18.2434 16.7423C18.3245 16.6882 18.4056 16.6071 18.4867 16.5801L18.703 16.4449L19.1627 16.1745C19.3249 16.0934 19.4601 15.9852 19.6223 15.9041L20.109 15.6608C20.4334 15.4986 20.7579 15.3364 21.1093 15.2012C20.7308 15.3634 20.3793 15.5527 20.0279 15.7149C19.8386 15.823 19.6493 15.9041 19.4871 16.0123C19.379 16.0934 19.1897 16.2015 19.0275 16.3097Z" fill="white"/>
<path d="M26.1935 28.5848C27.1398 28.4225 28.0591 27.9088 28.6809 27.0977C29.3028 26.3136 29.6002 25.2321 29.438 24.2047C29.3028 23.1773 28.708 22.231 27.8698 21.6632C27.4643 21.3658 26.9776 21.1766 26.518 21.0955C26.0313 21.0144 25.5446 21.0144 25.1391 21.0955C25.6528 21.0684 26.2206 21.0955 26.7613 21.2847C27.3021 21.474 27.7887 21.7984 28.1943 22.204C29.0054 23.0151 29.3298 24.2047 29.1947 25.1781C29.1406 25.6647 28.9513 26.1244 28.735 26.4759C28.5187 26.8273 28.2484 27.0977 27.978 27.314C27.4643 27.7196 27.0046 27.8007 26.8695 27.7736C26.7072 27.7196 26.9235 27.6114 27.3021 27.3681C27.6806 27.0977 28.1943 26.611 28.4917 25.881C28.7891 25.151 28.7891 24.1777 28.3835 23.3936C28.1943 22.9881 27.8969 22.6636 27.5724 22.3932C27.248 22.1229 26.8965 21.9607 26.545 21.8525C26.8695 22.0147 26.8695 22.0147 27.1939 22.204C26.8965 21.9877 26.5721 21.8255 26.2206 21.7984C26.3828 21.8525 26.5991 21.9336 26.8154 22.0418C27.0317 22.1499 27.248 22.2851 27.4102 22.4473C27.7617 22.7718 27.978 23.1503 28.0321 23.3395C27.8969 23.1773 27.7617 23.0692 27.5995 22.934C27.8428 23.2855 28.0591 23.7181 28.1132 24.2318C28.1943 24.7455 28.0861 25.2862 27.8698 25.7459C27.6265 26.2055 27.248 26.557 26.8154 26.7462C26.4098 26.9355 25.9772 26.9625 25.6798 26.8814C26.0583 26.9355 26.4909 26.8814 26.8695 26.6922C27.248 26.5029 27.5995 26.1784 27.8428 25.7729C27.9509 25.5566 28.0321 25.3403 28.0861 25.097C28.1132 24.8536 28.1402 24.6103 28.1132 24.3399C28.0321 23.8262 27.8158 23.3395 27.4102 22.961C27.0317 22.5825 26.4909 22.3121 25.9502 22.2581C25.6798 22.231 25.3283 22.231 25.0309 22.2851C24.7065 22.3392 24.4091 22.3932 24.1117 22.5014C23.8143 22.6095 23.5439 22.7447 23.3006 22.934C22.9761 23.0962 22.7057 23.3666 22.4894 23.6099C22.0568 24.0966 21.7324 24.6914 21.5431 25.3403C21.1917 26.6381 21.435 28.1251 22.0839 29.3688C22.4083 29.9907 22.8409 30.5585 23.3546 31.0451C23.8683 31.5318 24.4361 31.8833 25.085 32.0996C26.3558 32.5051 27.8158 32.2888 29.1135 31.7751C29.2758 31.7211 29.438 31.6399 29.6002 31.5588C29.7624 31.4777 29.9247 31.3966 30.0869 31.3155C30.4384 31.1533 30.6547 30.9911 30.898 30.8018C31.4117 30.3962 31.8443 29.8555 32.2228 29.2877C32.6284 28.6388 32.9528 27.9629 33.1691 27.2329C33.2773 26.8814 33.3584 26.5299 33.4124 26.1514C33.4665 25.7729 33.4936 25.3944 33.5206 25.0429C33.6017 23.5558 33.2773 22.177 32.5743 21.0684C32.2228 20.5006 31.7902 19.9869 31.2765 19.5273C30.7898 19.0677 30.2491 18.6892 29.7084 18.3647C29.1406 18.0673 28.5728 17.851 27.978 17.6888C27.8428 17.6617 27.6806 17.6347 27.5454 17.6077L27.3021 17.5536L27.0858 17.5266L26.6532 17.4995H26.2206C26.0043 17.4725 25.7069 17.5266 25.3554 17.5266C25.0039 17.5806 24.5983 17.6077 24.1928 17.7429C23.3546 17.9321 22.4083 18.2836 21.6783 18.6892C21.3539 18.8514 21.0294 19.0677 20.705 19.284C20.3535 19.5003 20.1642 19.6625 19.8939 19.8788C19.4072 20.3114 18.9476 20.8792 18.542 21.474C17.7309 22.6636 17.1631 24.0155 17.082 25.2321L17.055 25.5025L17.0279 25.7729L17.0009 26.3677C17.0009 26.4759 16.9739 26.557 16.9739 26.6651V26.9355L17.0009 27.5033C17.0009 27.6925 17.0279 27.8818 17.055 28.044L17.1091 28.5848C17.1631 28.9362 17.2713 29.2877 17.3254 29.6392C17.7039 31.0181 18.4068 32.2888 19.3531 33.3703C20.2994 34.4518 21.5431 35.317 22.9761 35.8848C24.382 36.4526 26.0313 36.777 27.5724 36.7229C27.7346 36.7229 27.8969 36.7229 28.0591 36.7229C28.2213 36.7229 28.3835 36.6959 28.5187 36.6959C28.8161 36.6959 29.0595 36.7229 29.1676 36.75C29.2758 36.777 29.2487 36.8581 29.0054 36.9392C28.8702 36.9933 28.708 37.0203 28.4376 37.0744C28.3024 37.1014 28.1672 37.1555 28.005 37.1555C27.8428 37.1555 27.6535 37.1826 27.4643 37.1826C27.3021 37.1826 27.1398 37.2096 26.9506 37.2096L26.4369 37.1826L25.9232 37.1555C25.7609 37.1555 25.5717 37.1014 25.4095 37.1014C24.7065 37.0203 24.0306 36.8581 23.3546 36.6689C22.0298 36.2633 20.7861 35.5874 19.7317 34.7222C19.8939 34.7763 20.2183 35.0196 20.5698 35.2629C20.7591 35.3981 20.9483 35.5063 21.1376 35.6144C21.3268 35.7226 21.4891 35.8037 21.6513 35.8577C21.435 35.7226 21.2187 35.5874 21.0294 35.4522C20.9213 35.3981 20.8131 35.317 20.732 35.2629C20.6509 35.1818 20.5428 35.1277 20.4617 35.0466C20.2724 34.9114 20.1102 34.7492 19.9209 34.614C19.7587 34.4518 19.5965 34.2896 19.4342 34.1544C19.3531 34.0733 19.272 33.9922 19.1909 33.9111L18.9746 33.6677C18.8394 33.5055 18.6772 33.3433 18.542 33.154C18.2717 32.7755 18.0013 32.424 17.7579 31.9914C18.4068 33.1 19.272 34.0733 20.3265 34.8574C19.975 34.6411 19.7046 34.3437 19.3802 34.0733C19.218 33.9381 19.0828 33.7759 18.9476 33.6137C18.8124 33.4514 18.6502 33.3162 18.542 33.154C18.2987 32.8025 18.0283 32.4781 17.8391 32.0996C17.7309 31.9103 17.6228 31.7211 17.5146 31.5318C17.4335 31.3425 17.3524 31.1262 17.2442 30.937C17.1361 30.7477 17.082 30.5314 17.0279 30.3151C16.9739 30.0988 16.8928 29.9096 16.8387 29.6933L16.7035 29.0444C16.6765 28.9362 16.6494 28.8281 16.6224 28.7199L16.5953 28.3955L16.5142 27.7196C16.5142 27.5033 16.5142 27.2599 16.4872 27.0436C16.4602 26.611 16.5142 26.1244 16.5413 25.6377C16.5953 24.9347 16.7846 24.4481 17.055 23.8533C17.3524 23.2584 17.6498 22.6095 18.0283 21.7714C17.3794 22.7177 16.8387 23.7992 16.6224 24.8536C16.5683 25.124 16.5413 25.4214 16.5142 25.7188C16.4872 26.0162 16.4331 26.3407 16.4331 26.6381V27.5573C16.4331 27.8547 16.4872 28.1522 16.5142 28.4496C16.6494 29.6392 17.0009 30.8018 17.5687 31.8833C18.1365 32.9377 18.8935 33.9111 19.8128 34.6951H19.7857C20.6239 35.3711 21.5161 35.9118 22.4624 36.3444C22.7057 36.4526 22.9491 36.5337 23.1924 36.6148L23.5439 36.75C23.6791 36.804 23.7872 36.8311 23.9224 36.8581C24.1657 36.9392 24.4361 36.9933 24.6795 37.0744C24.9498 37.1285 25.1932 37.1555 25.4635 37.2096L24.9769 37.1285C24.8146 37.1014 24.6524 37.0744 24.4902 37.0203C24.1657 36.9392 23.8683 36.8581 23.598 36.777C23.9765 36.8852 24.355 36.9933 24.7065 37.1014C25.085 37.1826 25.4635 37.2637 25.8691 37.3448C26.2476 37.3718 26.6261 37.4259 27.0046 37.4529H28.1672C29.7084 37.3448 31.1954 36.9122 32.5743 36.1822C31.628 36.7229 30.6006 37.1555 29.5191 37.4259C29.3839 37.48 29.2487 37.48 29.1135 37.507L28.708 37.5611L28.2213 37.6963C28.0861 37.7233 27.9509 37.7233 27.7887 37.7233C27.5183 37.7233 27.2209 37.7503 26.9235 37.7503C26.6261 37.7233 26.3558 37.7233 26.0583 37.6963C23.7332 37.48 21.435 36.6148 19.6235 35.1548C17.8391 33.6677 16.5413 31.5859 16.1357 29.3148C15.9194 28.1792 15.8383 27.0166 15.9465 25.854C15.9735 25.2592 16.0546 24.7184 16.1898 24.2047C16.325 23.664 16.5142 23.1503 16.7576 22.6366C16.4331 23.1773 16.1628 23.8262 16.0276 24.4751C15.9465 24.7996 15.9194 25.151 15.8653 25.5296C15.8383 25.9081 15.8113 26.2596 15.7842 26.6381C15.7302 28.0981 16.0005 29.477 16.2439 30.5585L16.1357 30.1799C16.1087 30.1259 16.0816 30.0448 16.0816 29.9907L16.0546 29.8014L15.8924 29.0444C15.8383 28.801 15.8383 28.5307 15.7842 28.2603C15.7572 27.9899 15.7302 27.7466 15.7302 27.4762V26.6922C15.7302 26.4218 15.7842 26.1514 15.7842 25.881C15.8383 25.3403 15.8924 24.8266 16.0005 24.3399C16.1357 23.8533 16.2979 23.3666 16.5142 22.8799C16.7305 22.3932 17.0009 21.9336 17.2713 21.501C17.5687 21.0684 17.8931 20.6358 18.2176 20.2303C18.5691 19.8247 18.9476 19.4462 19.3261 19.1218C19.1098 19.3381 18.8935 19.5543 18.7042 19.7706C18.9476 19.5543 19.1909 19.3381 19.4342 19.1488C19.5694 19.0406 19.6776 18.9595 19.8128 18.8784C19.9209 18.7973 20.0831 18.7162 20.2454 18.608C20.8402 18.2566 21.435 17.9321 22.0568 17.6347C23.3006 17.0669 24.6254 16.7154 25.8961 16.7154C26.1124 16.7154 26.3558 16.7425 26.5721 16.7425C26.3558 16.7425 26.1124 16.6884 25.8961 16.7154C24.7335 16.7154 23.5709 16.9588 22.4354 17.3914C21.8676 17.6077 21.3268 17.878 20.8131 18.1484C20.5428 18.3106 20.2994 18.4458 20.0291 18.608C19.8939 18.6892 19.7857 18.7703 19.6776 18.8514C19.5694 18.9325 19.4613 19.0136 19.3531 19.0947C19.5424 18.9055 19.7317 18.7703 19.975 18.608C20.2183 18.4458 20.4617 18.3106 20.732 18.1484C21.2457 17.851 21.8406 17.5536 22.4624 17.3103C21.7324 17.4995 20.7591 17.9862 19.7857 18.554C19.218 18.9325 18.7042 19.4192 18.2446 19.9329C17.785 20.4736 17.3524 21.0414 16.9739 21.6362C17.2442 21.1495 17.5687 20.7169 17.8931 20.2844C18.2176 19.8518 18.5691 19.4462 18.9476 19.0947C19.3261 18.7162 19.7317 18.4458 20.1642 18.1484C20.3805 18.0132 20.5968 17.851 20.8131 17.7158C21.0294 17.5806 21.2457 17.4725 21.4891 17.3373C21.1376 17.4995 20.7861 17.6617 20.4617 17.851C20.1372 18.0403 19.7857 18.2295 19.4883 18.4458C18.8665 18.8514 18.3257 19.3921 17.812 19.9869C16.8116 21.1766 16.0276 22.5284 15.595 23.9884C16.0276 22.3932 16.8928 20.8792 18.0013 19.6084C18.4879 19.0947 19.0017 18.608 19.5965 18.2295L20.5157 17.6888C20.8402 17.5266 21.1646 17.3643 21.462 17.2021C21.7865 17.0399 22.1109 16.9317 22.4354 16.7966C22.7598 16.6884 23.1113 16.5803 23.4628 16.4721C24.1657 16.3099 24.8417 16.1747 25.5717 16.1747L25.2472 16.2017C25.4635 16.2017 25.6798 16.1747 25.8961 16.1747C26.1665 16.1747 26.4369 16.2017 26.7343 16.2288C27.0046 16.2558 27.275 16.3099 27.5454 16.364C27.8158 16.4451 28.0861 16.4992 28.3565 16.5803L28.735 16.7154L28.9243 16.7966L29.1135 16.8777C30.0328 17.2832 30.871 17.7969 31.628 18.4458C31.7361 18.554 31.8713 18.6621 31.9795 18.7973C31.8713 18.6892 31.7632 18.6351 31.7361 18.6351C31.7091 18.6351 31.7902 18.7162 32.0065 18.9595C32.8447 19.9329 33.5747 21.0955 33.8991 22.4203C34.2236 23.7451 34.1695 25.2592 33.7639 26.6922C33.5476 27.4222 33.1961 28.4225 32.6013 29.3688C32.4121 29.6122 32.331 29.7473 32.2769 29.8825C32.1417 30.0718 31.9795 30.2611 31.8173 30.4503C31.4117 30.8829 30.9791 31.2885 30.4924 31.5588C30.9791 31.2885 31.4387 30.8829 31.8173 30.4503C31.9524 30.2881 32.1147 30.0988 32.2498 29.9366C32.1958 30.0718 32.1147 30.234 31.8984 30.4774C32.6013 29.7203 33.1421 28.801 33.5476 27.8007C33.7369 27.314 33.8991 26.8003 34.0073 26.2866C34.1154 25.7729 34.1695 25.2321 34.1965 24.6914C34.2506 23.6099 34.1154 22.5284 33.7369 21.501C33.3584 20.5006 32.7365 19.5814 31.9795 18.7973C32.0876 18.8784 32.1958 18.9866 32.3039 19.0947C32.4121 19.2029 32.4932 19.284 32.5473 19.3381C32.2498 19.0136 31.9254 18.7162 31.601 18.4458C31.3576 18.2025 31.0602 17.9862 30.7898 17.7699C30.4924 17.5806 30.2221 17.3643 29.8976 17.2021C29.6002 17.0129 29.2758 16.8777 28.9513 16.7425C28.7891 16.6884 28.6269 16.6343 28.4647 16.5803C28.3835 16.5532 28.3024 16.5262 28.2213 16.4992L27.978 16.4451C28.0861 16.4721 28.1943 16.4721 28.2754 16.4992C28.3835 16.5262 28.4646 16.5532 28.5728 16.5803C28.7621 16.6343 28.9513 16.6614 29.1135 16.7154C28.1943 16.3099 27.1939 16.0936 26.1665 16.0666C25.1661 16.0395 24.1387 16.2017 23.1654 16.4992C22.192 16.7966 21.2728 17.2562 20.3805 17.7429C19.948 18.0132 19.4883 18.2566 19.1098 18.581C18.7042 18.9055 18.3528 19.2569 18.0283 19.6355C17.3794 20.3384 16.8116 21.1225 16.352 21.9607C15.8924 22.7988 15.5409 23.691 15.3516 24.6103C15.0542 26.4759 15.0002 28.4496 15.5139 30.2881C15.2976 29.2877 15.1624 28.2333 15.2165 27.1788V26.7733C15.2165 26.6381 15.2165 26.5029 15.2435 26.3677C15.2705 26.0973 15.2976 25.827 15.3246 25.5566C15.3516 25.2862 15.3787 25.0158 15.4328 24.7725C15.4868 24.5021 15.5409 24.2588 15.622 23.9884C15.4328 24.6644 15.3787 25.3944 15.3246 26.0973C15.3246 26.2866 15.2976 26.4488 15.2976 26.6381V27.1788V27.7196C15.2976 27.9088 15.3246 28.071 15.3516 28.2603C15.4868 29.6933 15.9194 31.0722 16.5683 32.3429C17.8931 34.8844 20.2724 36.777 23.0031 37.7233C21.9487 37.5611 20.6509 36.9392 19.975 36.7229C19.975 36.777 20.3805 37.0474 20.6509 37.2366C20.7861 37.3448 20.9213 37.3989 20.9213 37.4259C20.9483 37.4529 20.8402 37.4259 20.5968 37.2907C18.7313 36.3714 17.4335 35.0737 16.5413 33.884C16.4331 33.7218 16.2979 33.5866 16.2168 33.4514C16.1357 33.2892 16.0276 33.154 15.9465 33.0188C15.8653 32.8837 15.7572 32.7485 15.6761 32.6133C15.595 32.4781 15.5139 32.3429 15.4598 32.2077C15.3246 31.9374 15.1624 31.7211 15.0272 31.4777C14.919 31.2344 14.7839 31.0451 14.6757 30.8559C14.6216 30.7748 14.6487 31.0181 14.7027 31.4237C14.7298 31.6129 14.7839 31.8292 14.865 32.0725C14.9461 32.3159 15.0002 32.5592 15.0813 32.8025C15.2705 33.2622 15.4328 33.7218 15.5139 33.9381C15.5409 34.0463 15.5679 34.1274 15.5409 34.1274C15.5139 34.1274 15.4328 34.0463 15.3246 33.884C15.2435 33.7488 15.1353 33.5866 15.0272 33.3974C14.919 33.2081 14.7839 33.0459 14.7027 32.8296C14.5946 32.6133 14.4865 32.397 14.3783 32.1537C14.3242 32.0455 14.2702 31.9103 14.2161 31.8022C14.162 31.667 14.135 31.5318 14.0809 31.4237C13.9998 31.1533 13.8916 30.8829 13.8105 30.5855C13.7564 30.2881 13.6753 29.9907 13.5942 29.6933C13.5672 29.5311 13.5131 29.3959 13.4861 29.2336C13.5131 29.0444 13.4861 28.8822 13.4861 28.747C13.459 28.4225 13.405 28.0981 13.3779 27.7736C13.3779 27.3951 13.3779 27.0166 13.3779 26.611C13.405 26.2325 13.432 25.854 13.4861 25.4484C13.5131 25.3403 13.4861 25.2051 13.4861 24.9618C13.5131 24.7725 13.5131 24.5833 13.5672 24.394C13.5942 24.2047 13.6483 24.0155 13.6753 23.8262C13.7564 23.4747 13.8646 23.0962 13.9727 22.7718C14.2161 22.0958 14.4865 21.501 14.7839 20.9603C15.3787 19.8788 16.0276 19.0406 16.5413 18.4729C16.9198 18.0403 17.3524 17.6617 17.812 17.2832C17.9472 17.2021 18.0554 17.121 18.1905 17.0399C18.2987 16.9858 18.4339 16.9317 18.515 16.8777L18.6231 16.7966L18.7313 16.7154L18.9476 16.5532L19.3531 16.2558C20.5968 15.5529 21.9487 14.958 23.4087 14.6336L24.0306 14.5254C24.2469 14.4984 24.4361 14.4984 24.6524 14.4714C25.058 14.4173 25.4906 14.4443 25.8961 14.4443C25.8691 14.4173 25.7339 14.3903 25.8961 14.3362C26.8424 14.3362 27.8158 14.4443 28.708 14.7417C29.6272 15.0121 30.4924 15.4177 31.2765 15.9314C31.8713 16.391 32.385 16.8506 32.7636 17.3373C33.1691 17.6347 33.6558 18.0673 34.1154 18.6892C34.6021 19.284 35.0617 20.0681 35.3862 20.9603C35.7106 21.8525 35.8999 22.8258 35.9269 23.7451C35.981 24.6644 35.8728 25.5566 35.7647 26.3136C35.6295 27.1247 35.4132 27.9359 35.0887 28.6659C34.7643 29.4229 34.3587 30.1259 33.8721 30.8018C33.6828 31.0181 33.4936 31.2074 33.3313 31.3696C33.115 31.7211 32.7906 32.0455 32.6284 32.2077C32.358 32.4511 32.0876 32.6403 31.7902 32.8296C31.7091 32.8837 31.628 32.9107 31.5469 32.9648C31.4658 33.0188 31.3847 33.0459 31.3306 33.0729C31.1954 33.127 31.0602 33.1811 30.9521 33.2622C30.7087 33.3703 30.4384 33.4785 30.195 33.5866C29.9247 33.6677 29.6813 33.7759 29.4109 33.83C29.2217 33.9111 28.8972 34.1274 28.4647 34.2085C27.5995 34.3977 26.7343 34.4788 25.842 34.3977C24.8146 34.2896 23.7602 33.9111 22.895 33.2892C22.165 32.7755 21.5431 32.1537 21.0565 31.4777C20.5698 30.8018 20.1913 30.0448 19.9209 29.2607C19.6505 28.4766 19.4883 27.6385 19.4883 26.8003C19.4883 25.9621 19.6235 25.097 19.948 24.3129C20.002 24.2318 20.0561 24.2047 20.1102 24.2047C20.1913 23.9614 20.2994 23.664 20.4887 23.3936C20.5698 23.2584 20.6509 23.1233 20.732 23.0151C20.8131 22.907 20.8943 22.7988 20.9754 22.6907C20.9213 22.7718 20.9213 22.8258 20.9483 22.8258C21.0565 22.6636 21.1646 22.5284 21.2728 22.4203C21.3809 22.3121 21.462 22.204 21.5702 22.1229C21.7594 21.9336 21.8946 21.7984 22.1109 21.6632C22.4894 21.3929 22.868 21.1766 23.5169 20.9603C23.8143 20.8521 24.0846 20.7169 24.355 20.6629C24.4902 20.6358 24.6524 20.6088 24.7876 20.5818C24.9769 20.5818 25.1661 20.5818 25.3554 20.5818C25.4635 20.5818 25.5446 20.5818 25.6528 20.6088L25.9502 20.6358C26.3558 20.6899 26.7613 20.771 27.1669 20.9332C27.9509 21.2307 28.6539 21.7714 29.1676 22.5284C29.6543 23.3125 29.8706 24.2318 29.7895 25.124C29.7084 26.0162 29.3298 26.8544 28.735 27.5033C28.2484 28.017 27.8158 28.2333 27.4372 28.3955C27.0317 28.5036 26.6532 28.5577 26.1935 28.5848Z" fill="white"/>
<path d="M35.7099 22.772C35.7911 23.556 35.7911 24.3401 35.7099 25.0701C35.6559 25.4486 35.6288 25.8001 35.5477 26.1787C35.5207 26.3679 35.4666 26.5572 35.4396 26.7464C35.4125 26.9357 35.3314 27.125 35.2773 27.3142C35.3314 27.125 35.3855 26.9087 35.4125 26.7194C35.4396 26.6112 35.4396 26.5301 35.4666 26.422C35.4666 26.3409 35.4936 26.2327 35.4936 26.1516C35.5477 25.7731 35.5748 25.4216 35.6288 25.0431C35.737 24.259 35.737 23.529 35.7099 22.772Z" fill="white"/>
<path d="M15.9191 34.911C16.0002 35.0462 16.0543 35.1814 16.1624 35.3166C16.2706 35.4518 16.3517 35.5869 16.4598 35.7221C16.6761 35.9925 16.8924 36.2899 17.1628 36.5603C17.0817 36.4792 16.9735 36.3981 16.8924 36.3169L16.6491 36.0466L16.1624 35.4788C15.838 35.1003 15.5676 34.6677 15.2702 34.2621L14.8646 33.6132C14.7565 33.3969 14.5943 33.1806 14.5132 32.9643L14.2158 32.2884L14.0535 31.9099L13.9454 31.5584C13.7832 31.0717 13.6209 30.6121 13.5398 30.1254L13.3776 29.3954C13.3235 29.1521 13.3235 28.9088 13.2965 28.6654L13.2154 27.9354V27.2054C13.2154 26.9621 13.2154 26.7188 13.2154 26.4754L13.2695 25.7725C13.2424 26.151 13.1883 26.5565 13.2154 26.9891C13.2154 27.2054 13.2154 27.4217 13.2154 27.638C13.2154 27.7462 13.2154 27.8543 13.2154 27.9625C13.2154 28.0706 13.2424 28.1788 13.2424 28.314C13.3235 29.2332 13.4857 30.1525 13.7291 31.0447C14.2698 32.721 15.162 34.208 15.9191 34.911Z" fill="white"/>
<path d="M34.1421 18.7703C34.1964 18.8246 34.2508 18.879 34.3051 18.9333C34.2508 18.879 34.1964 18.8246 34.1421 18.7703Z" fill="white"/>
<path d="M22.435 37.7774C22.5431 37.8044 22.6513 37.8585 22.7324 37.8855L22.1646 37.6692C21.9753 37.6151 21.7861 37.507 21.5968 37.4259L21.029 37.1555C20.8398 37.0474 20.6505 36.9392 20.4883 36.8311C20.6235 36.9122 20.7857 36.9933 20.9479 37.0744C21.1101 37.1555 21.2724 37.2096 21.4346 37.2907C21.732 37.4799 22.0835 37.6422 22.435 37.7774Z" fill="white"/>
<path d="M31.3315 38.1019C32.9538 37.5071 34.4678 36.5878 35.7116 35.3982L36.036 35.1278L36.3334 34.8304C36.5227 34.6412 36.7119 34.4249 36.9012 34.2356C37.0634 34.0193 37.2527 33.803 37.4149 33.5867L37.6853 33.2623C37.7664 33.1541 37.8475 33.046 37.9286 32.9378C38.0908 32.7215 38.226 32.4782 38.3882 32.2619C38.5234 32.0456 38.6586 31.8023 38.7938 31.5589C39.0642 31.0993 39.2805 30.6126 39.4968 30.126C38.7938 31.9645 37.7123 33.6408 36.3334 35.0197C34.9004 36.4256 33.1971 37.453 31.3315 38.1019Z" fill="white"/>
<path d="M53.1901 32.79C53.6281 32.9847 54.0985 33.1307 54.5689 33.2767C54.0985 33.1632 53.6281 33.0334 53.1738 32.8549C53.2712 32.8549 53.2063 32.8063 53.1901 32.79Z" fill="white"/>
<path d="M16.8661 33.5866C16.9742 33.7218 17.0824 33.857 17.1635 34.0192L16.7579 33.4785C16.6227 33.3163 16.5146 33.1 16.3794 32.9377C16.4605 33.0459 16.6768 33.3703 16.8661 33.5866Z" fill="white"/>
<path d="M30.4096 28.759C29.8148 28.9213 29.193 28.9483 28.5981 29.0294C28.9496 28.9753 29.3011 28.8942 29.6526 28.8131C29.8689 28.8401 30.1122 28.8131 30.4096 28.759Z" fill="white"/>
<path d="M38.3337 35.4247C38.5771 35.1003 38.8474 34.7758 39.0908 34.4514C39.3341 34.1269 39.5234 33.8025 39.7397 33.478C39.4963 33.8836 39.253 34.3162 38.9285 34.6947C38.6311 35.0732 38.3608 35.4788 38.0093 35.8303C38.1715 35.641 38.2526 35.5058 38.3337 35.4247Z" fill="white"/>
<path d="M37.0199 33.9692C38.3911 32.2864 39.3884 30.3231 39.887 28.2663C39.9805 28.017 40.0116 27.7677 40.0428 27.4872C40.1051 27.2379 40.1363 26.9574 40.1675 26.7081C40.1986 26.4588 40.1986 26.2407 40.2298 25.9913C40.2298 25.742 40.2298 25.4927 40.2298 25.2434C40.1986 24.2462 40.0116 23.2178 39.7623 22.2517C40.1363 23.8099 40.3544 25.3992 40.1363 26.8639C40.2921 25.7732 40.2298 24.7136 40.074 23.6229C39.9182 22.5322 39.6688 21.4103 39.2949 20.2261C39.3884 20.3819 39.4819 20.6312 39.5442 20.8805C39.6065 21.1298 39.7 21.4103 39.7935 21.6596C39.9493 22.1894 40.074 22.6568 40.1675 22.8438C40.2298 23.2178 40.3233 23.5606 40.3544 23.9345C40.3856 24.1215 40.4168 24.3085 40.4168 24.4955L40.4479 25.0253C40.4791 25.2123 40.4479 25.3681 40.4479 25.5551C40.4479 25.742 40.4479 25.8979 40.4479 26.0848L40.3856 26.5835C40.3856 26.7393 40.3233 26.9263 40.2921 27.1132C40.074 28.5468 39.5442 29.9491 38.8586 31.2268C37.612 33.8134 35.3994 35.839 32.9375 37.0856C33.1556 36.8986 33.3738 36.7428 33.5608 36.6181C33.7789 36.4623 33.9659 36.3688 34.1529 36.213C34.3399 36.0884 34.5268 35.9637 34.6827 35.839C34.8696 35.7144 35.0566 35.6209 35.2124 35.4962C35.5241 35.2469 35.8669 35.0288 36.1474 34.7795C36.459 34.5302 36.7395 34.2497 37.0199 33.9692Z" fill="white"/>
<path d="M36.4575 14.3987C36.8003 14.8038 37.1431 15.2401 37.4548 15.7387C37.112 15.2401 36.7692 14.8038 36.4575 14.3987Z" fill="white"/>
<path d="M14.832 19.6031C15.206 18.9798 15.6423 18.3877 16.1097 17.8579C15.6423 18.4189 15.206 19.011 14.832 19.6031Z" fill="white"/>
<path d="M58.7092 32.4324C58.6531 32.4511 58.6157 32.4698 58.5596 32.4885L58.41 32.5446C58.2978 32.582 58.2044 32.6007 58.0922 32.6381L57.793 32.7129L57.4751 32.7503C57.2694 32.769 57.0638 32.8064 56.8394 32.8251C56.6337 32.8251 56.4093 32.8251 56.2036 32.8438C56.0915 32.8438 55.998 32.8438 55.8858 32.8251L55.5679 32.7877L55.25 32.7503C55.1379 32.7316 55.0444 32.7129 54.9322 32.6942C54.7265 32.6568 54.5021 32.6194 54.2964 32.5633C54.0908 32.5072 53.8851 32.4511 53.6794 32.395C53.5672 32.3763 53.4737 32.3389 53.3802 32.2828L53.0811 32.1707C53.9412 32.5072 54.9135 32.7316 55.8858 32.7503C56.8394 32.7877 57.8117 32.6568 58.7092 32.4324Z" fill="white"/>
<path d="M33.9331 37.8339L34.4006 37.5534C34.5564 37.4599 34.7122 37.3664 34.868 37.2418L35.7406 36.5874C36.3015 36.1199 36.8625 35.6524 37.3611 35.1227C37.8909 34.624 38.3272 34.0319 38.7635 33.5022C39.1686 32.91 39.6049 32.3491 39.9165 31.7258C39.6049 32.3491 39.1686 32.91 38.7946 33.5022C38.3272 34.0631 37.9221 34.624 37.3923 35.1227C36.8937 35.6524 36.3327 36.1199 35.7718 36.5874C35.4601 36.8055 35.1797 37.0236 34.868 37.2106C34.7122 37.3353 34.5564 37.4288 34.4006 37.5223L33.9331 37.8339Z" fill="white"/>
<path d="M34.7749 16.9541C34.7749 16.9229 34.8372 16.9541 34.8996 17.0476C34.9619 17.1411 35.0242 17.2034 35.0865 17.2345C35.8656 18.3876 36.4266 19.7588 36.6447 21.1612C36.5824 20.8184 36.4266 20.5067 36.3331 20.1951C36.2084 19.8211 36.1461 19.5095 36.0526 19.2602C35.9591 19.0109 35.8656 18.7616 35.7721 18.5434C35.554 18.076 35.3047 17.6085 34.7749 16.9541Z" fill="white"/>
<path d="M14.4262 20.2886L14.395 20.3509C14.3016 20.569 14.1769 20.7872 14.0834 21.0053C14.0834 21.0365 14.0522 21.0677 14.0522 21.0677C14.1457 20.8184 14.2704 20.569 14.4262 20.2886Z" fill="white"/>
<path d="M33.6532 15.6454C33.6844 15.5831 33.6844 15.5519 33.6221 15.4272C34.1519 15.9882 34.6505 16.5803 35.0868 17.2347C35.0244 17.1724 34.9621 17.1101 34.8998 17.0478C34.5881 16.6426 34.0895 15.9882 33.6532 15.6454Z" fill="white"/>
<path d="M17.4792 14.2118C17.2922 14.3364 17.1052 14.4611 16.9494 14.5858C16.7936 14.7416 16.6378 14.8662 16.5443 14.9597C15.3912 15.7388 14.4875 16.6426 13.5526 17.8268C13.4279 18.0138 13.1474 18.45 12.9604 18.8552C12.7735 19.0733 12.5865 19.2915 12.4307 19.5719C13.2409 18.1072 14.207 16.7672 15.5159 15.583C15.6717 15.4272 15.8587 15.2714 16.0145 15.1467C16.2015 14.9909 16.3573 14.8662 16.5754 14.7104C16.6689 14.6481 16.7624 14.5546 16.8559 14.5234L17.1052 14.3676L17.635 14.056C17.822 13.9625 17.9778 13.8378 18.1648 13.7443L18.7257 13.4639C19.0997 13.2769 19.4736 13.0899 19.8788 12.9341C19.4425 13.1211 19.0373 13.3392 18.6322 13.5262C18.4141 13.6508 18.1959 13.7443 18.009 13.869C17.8843 13.9625 17.6662 14.0871 17.4792 14.2118Z" fill="white"/>
<path d="M36.7086 21.6599C36.8021 22.5637 36.8021 23.4674 36.7086 24.3088C36.6463 24.7451 36.6151 25.1502 36.5216 25.5865C36.4904 25.8047 36.4281 26.0228 36.3969 26.241C36.3658 26.4591 36.2723 26.6773 36.21 26.8954C36.2723 26.6773 36.3346 26.4279 36.3658 26.2098C36.3969 26.0851 36.3969 25.9917 36.4281 25.867C36.4281 25.7735 36.4593 25.6489 36.4593 25.5554C36.5216 25.1191 36.5528 24.7139 36.6151 24.2777C36.7397 23.3739 36.7397 22.5325 36.7086 21.6599Z" fill="white"/>
<path d="M13.8954 35.6524C13.9889 35.8083 14.0512 35.9641 14.1758 36.1199C14.3005 36.2757 14.394 36.4315 14.5186 36.5873C14.7679 36.899 15.0173 37.2418 15.3289 37.5534C15.2354 37.4599 15.1107 37.3664 15.0173 37.273L14.7368 36.9613L14.1758 36.3069C13.8019 35.8706 13.4902 35.372 13.1474 34.9045L12.68 34.1566C12.5553 33.9073 12.3683 33.658 12.2749 33.4087L11.9321 32.6296L11.7451 32.1933L11.6204 31.7882C11.4334 31.2272 11.2465 30.6974 11.153 30.1365L10.966 29.2951C10.9037 29.0146 10.9037 28.7341 10.8725 28.4536L10.779 27.6122V26.7708C10.779 26.4903 10.779 26.2099 10.779 25.9294L10.8413 25.1191C10.8102 25.5554 10.7478 26.0229 10.779 26.5215C10.779 26.7708 10.779 27.0201 10.779 27.2694C10.779 27.3941 10.779 27.5187 10.779 27.6434C10.779 27.768 10.8102 27.8927 10.8102 28.0485C10.9037 29.1081 11.0906 30.1676 11.3711 31.196C11.9944 33.1282 13.0228 34.8422 13.8954 35.6524Z" fill="white"/>
<path d="M34.9019 17.0476C34.9645 17.1103 35.0271 17.1729 35.0898 17.2355C35.0271 17.1729 34.9645 17.1103 34.9019 17.0476Z" fill="white"/>
<path d="M52.9312 32.5072C53.006 32.5259 53.0808 32.5633 53.1369 32.582L52.7442 32.4324C52.6134 32.395 52.4825 32.3202 52.3516 32.2641L51.9589 32.0772C51.828 32.0024 51.6971 31.9276 51.585 31.8528C51.6785 31.9089 51.7906 31.965 51.9028 32.0211C52.015 32.0772 52.1272 32.1146 52.2394 32.1707C52.4451 32.3015 52.6882 32.4137 52.9312 32.5072Z" fill="white"/>
<path d="M31.6572 39.3297C33.527 38.6441 35.2722 37.5846 36.7057 36.2134L37.0797 35.9017L37.4225 35.5589C37.6406 35.3408 37.8588 35.0915 38.0769 34.8733C38.2639 34.624 38.4821 34.3747 38.669 34.1254L38.9807 33.7515C39.0742 33.6268 39.1677 33.5021 39.2612 33.3775C39.4481 33.1282 39.6039 32.8477 39.7909 32.5984C39.9467 32.3491 40.1026 32.0686 40.2584 31.7881C40.57 31.2584 40.8193 30.6974 41.0686 30.1365C40.2584 32.2556 39.0118 34.1877 37.4225 35.7771C35.7708 37.3976 33.8075 38.5818 31.6572 39.3297Z" fill="white"/>
<path d="M14.9877 34.1254C15.1124 34.2812 15.237 34.437 15.3305 34.624L14.863 34.0007C14.7072 33.8137 14.5826 33.5644 14.4268 33.3774C14.5202 33.5021 14.7696 33.8761 14.9877 34.1254Z" fill="white"/>
<path d="M39.7304 36.2443C40.0109 35.8703 40.3225 35.4963 40.603 35.1224C40.8835 34.7484 41.1016 34.3745 41.3509 34.0005C41.0704 34.4679 40.79 34.9666 40.416 35.4029C40.0732 35.8391 39.7616 36.3066 39.3564 36.7117C39.5434 36.4936 39.6369 36.3378 39.7304 36.2443Z" fill="white"/>
</svg>
