<svg width="20" height="20" viewBox="0 0 20 20" fill="blue" xmlns="http://www.w3.org/2000/svg">
<path d="M15.6458 17.395C15.45 17.395 15.2917 17.2367 15.2917 17.0409C15.2917 15.8689 14.3386 14.9159 13.1667 14.9159C12.9708 14.9159 12.8125 14.7575 12.8125 14.5617C12.8125 14.3658 12.9708 14.2075 13.1667 14.2075C14.7289 14.2075 16 15.4786 16 17.0409C16 17.2367 15.8417 17.395 15.6458 17.395Z" fill="#4A4A4A"/>
<path d="M13.1668 14.9166L11.7498 14.9159C11.5543 14.9159 11.396 14.7572 11.396 14.5617C11.396 14.3658 11.5547 14.2075 11.7502 14.2075H11.7505L13.1672 14.2082C13.3627 14.2082 13.521 14.3669 13.521 14.5624C13.521 14.7582 13.3623 14.9166 13.1668 14.9166Z" fill="#4A4A4A"/>
<path d="M15.6457 19.8744C15.4498 19.8744 15.2915 19.7161 15.2915 19.5202V17.0407C15.2915 16.8448 15.4498 16.6865 15.6457 16.6865C15.8415 16.6865 15.9998 16.8448 15.9998 17.0407V19.5202C15.9998 19.7161 15.8415 19.8744 15.6457 19.8744Z" fill="#4A4A4A"/>
<path d="M3.60466 17.395C3.40916 17.395 3.25049 17.2367 3.25049 17.0409C3.25013 16.2833 3.5448 15.5721 4.07959 15.037C4.61474 14.5022 5.32661 14.2075 6.08382 14.2075C6.27968 14.2075 6.43799 14.3658 6.43799 14.5617C6.43799 14.7575 6.27968 14.9159 6.08382 14.9159C5.51574 14.9159 4.98166 15.1369 4.58074 15.5378C4.17947 15.939 3.95882 16.4728 3.95882 17.0409C3.95882 17.2364 3.80051 17.395 3.60466 17.395Z" fill="#4A4A4A"/>
<path d="M6.08366 14.9166C5.88816 14.9166 5.72949 14.7582 5.72949 14.5624C5.72949 14.3669 5.88781 14.2082 6.08331 14.2082L7.49997 14.2075H7.50033C7.69583 14.2075 7.8545 14.3658 7.8545 14.5617C7.8545 14.7572 7.69618 14.9159 7.50068 14.9159L6.08366 14.9166Z" fill="#4A4A4A"/>
<path d="M3.60417 19.8744C3.40831 19.8744 3.25 19.7157 3.25 19.5202L3.25035 17.0407C3.25035 16.8448 3.40902 16.6865 3.60452 16.6865C3.80037 16.6865 3.95869 16.8452 3.95869 17.0407L3.95833 19.5202C3.95833 19.7161 3.79967 19.8744 3.60417 19.8744Z" fill="#4A4A4A"/>
<path d="M7.50052 14.9146C7.30502 14.9146 7.14635 14.7563 7.14635 14.5605L7.146 12.6257C7.146 12.4302 7.30431 12.2715 7.50016 12.2715C7.69566 12.2715 7.85433 12.4298 7.85433 12.6257L7.85468 14.5605C7.85468 14.756 7.69637 14.9146 7.50052 14.9146Z" fill="#4A4A4A"/>
<path d="M11.7502 14.9139C11.5543 14.9139 11.396 14.7556 11.396 14.5598V12.6257C11.396 12.4298 11.5543 12.2715 11.7502 12.2715C11.946 12.2715 12.1043 12.4298 12.1043 12.6257V14.5598C12.1043 14.7556 11.946 14.9139 11.7502 14.9139Z" fill="#4A4A4A"/>
<path d="M9.62484 13.499C6.89067 13.499 4.6665 11.2748 4.6665 8.54069C4.6665 8.34519 4.82482 8.18652 5.02067 8.18652C5.21652 8.18652 5.37484 8.34519 5.37484 8.54069C5.37484 10.8842 7.28132 12.7907 9.62484 12.7907C11.9684 12.7907 13.8748 10.8842 13.8748 8.54069C13.8748 8.34519 14.0332 8.18652 14.229 8.18652C14.4249 8.18652 14.5832 8.34519 14.5832 8.54069C14.5832 11.2748 12.359 13.499 9.62484 13.499Z" fill="#4A4A4A"/>
<path d="M5.02067 8.89486C4.82482 8.89486 4.6665 8.73619 4.6665 8.54069V5.35319C4.6665 5.15769 4.82482 4.99902 5.02067 4.99902C5.21652 4.99902 5.37484 5.15769 5.37484 5.35319V8.54069C5.37484 8.73619 5.21652 8.89486 5.02067 8.89486Z" fill="#4A4A4A"/>
<path d="M14.2292 8.89469C14.0333 8.89469 13.875 8.73603 13.875 8.54053V4.64469C13.875 4.44919 14.0333 4.29053 14.2292 4.29053C14.425 4.29053 14.5833 4.44919 14.5833 4.64469V8.54053C14.5833 8.73603 14.425 8.89469 14.2292 8.89469Z" fill="#4A4A4A"/>
<path d="M14.2292 4.99886C14.0333 4.99886 13.875 4.84019 13.875 4.64469C13.875 3.66826 13.0806 2.87386 12.1042 2.87386C11.9083 2.87386 11.75 2.71519 11.75 2.51969C11.75 2.32419 11.9083 2.16553 12.1042 2.16553C13.4709 2.16553 14.5833 3.27761 14.5833 4.64469C14.5833 4.84019 14.425 4.99886 14.2292 4.99886Z" fill="#4A4A4A"/>
<path d="M12.1042 2.87403C11.9083 2.87403 11.75 2.71536 11.75 2.51986V1.10319C11.75 0.90769 11.9083 0.749023 12.1042 0.749023C12.3 0.749023 12.4583 0.90769 12.4583 1.10319V2.51986C12.4583 2.71536 12.3 2.87403 12.1042 2.87403Z" fill="#4A4A4A"/>
<path d="M12.104 1.45736H9.27067C9.07482 1.45736 8.9165 1.29869 8.9165 1.10319C8.9165 0.90769 9.07482 0.749023 9.27067 0.749023H12.104C12.2999 0.749023 12.4582 0.90769 12.4582 1.10319C12.4582 1.29869 12.2999 1.45736 12.104 1.45736Z" fill="#4A4A4A"/>
<path d="M5.02067 5.70736C4.82482 5.70736 4.6665 5.54869 4.6665 5.35319C4.6665 2.81452 6.732 0.749023 9.27102 0.749023C9.46688 0.749023 9.62519 0.90769 9.62519 1.10319C9.62519 1.29869 9.46688 1.45736 9.27102 1.45736C7.12265 1.45736 5.37484 3.20517 5.37484 5.35319C5.37484 5.54869 5.21652 5.70736 5.02067 5.70736Z" fill="#4A4A4A"/>
<path d="M14.2288 7.47843C14.1381 7.47843 14.0474 7.44372 13.9784 7.37466L12.9159 6.31217C12.7774 6.17369 12.7774 5.94986 12.9159 5.81138C13.0543 5.6729 13.2782 5.6729 13.4167 5.81138L14.4791 6.87387C14.6176 7.01235 14.6176 7.23618 14.4791 7.37466C14.4101 7.44372 14.3194 7.47843 14.2288 7.47843Z" fill="#4A4A4A"/>
<path d="M9.62512 7.12433C7.65099 7.12433 6.01049 6.41635 5.94178 6.38625C5.76257 6.30797 5.68112 6.09937 5.75903 5.92016C5.8373 5.7406 6.0452 5.65914 6.22512 5.73705C6.2407 5.74378 7.80434 6.416 9.62512 6.416C11.4526 6.416 13.0095 5.74414 13.0251 5.73741C13.204 5.65914 13.4133 5.74095 13.4912 5.9198C13.5698 6.09901 13.488 6.30797 13.3084 6.38625C13.2397 6.4167 11.5992 7.12433 9.62512 7.12433Z" fill="#4A4A4A"/>
<path d="M5.02027 7.47941C4.9296 7.47941 4.83894 7.4447 4.76987 7.37564C4.6314 7.23716 4.6314 7.01297 4.76987 6.87485L5.83273 5.81235C5.97121 5.67388 6.19504 5.67388 6.33352 5.81235C6.472 5.95083 6.472 6.17502 6.33352 6.31314L5.27067 7.37564C5.2016 7.4447 5.11094 7.47941 5.02027 7.47941Z" fill="#4A4A4A"/>
<path d="M8.56217 15.6249C8.49488 15.6249 8.42617 15.6054 8.36561 15.5654L7.30347 14.8563C7.1409 14.7476 7.09699 14.5277 7.20572 14.3647C7.31445 14.2025 7.53367 14.1586 7.6973 14.267L8.75944 14.976C8.922 15.0848 8.96592 15.3047 8.85719 15.4676C8.78884 15.5696 8.67657 15.6249 8.56217 15.6249Z" fill="#4A4A4A"/>
<path d="M8.56276 15.6247C8.41472 15.6247 8.27624 15.5312 8.22701 15.3828C8.16467 15.1975 8.2649 14.9964 8.45049 14.9344L9.51299 14.5788C9.69822 14.5172 9.89939 14.6164 9.96137 14.8023C10.0237 14.9875 9.92347 15.1887 9.73789 15.2507L8.67538 15.6063C8.63784 15.6186 8.59995 15.6247 8.56276 15.6247Z" fill="#4A4A4A"/>
<path d="M10.6882 15.6249C10.5738 15.6249 10.4616 15.5697 10.3932 15.4673C10.2845 15.3048 10.3284 15.0848 10.4913 14.9761L11.5538 14.2671C11.716 14.1587 11.9359 14.2023 12.045 14.3652C12.1538 14.5277 12.1098 14.7477 11.9469 14.8564L10.8844 15.5654C10.8242 15.6055 10.7555 15.6249 10.6882 15.6249Z" fill="#4A4A4A"/>
<path d="M10.6877 15.6245C10.6505 15.6245 10.6126 15.6185 10.5754 15.6061L9.51295 15.2505C9.32772 15.1885 9.22714 14.9877 9.28947 14.8021C9.35181 14.6165 9.55262 14.5174 9.73785 14.5786L10.8003 14.9342C10.9856 14.9962 11.0862 15.197 11.0238 15.3826C10.9742 15.5306 10.8358 15.6245 10.6877 15.6245Z" fill="#4A4A4A"/>
<path d="M9.63572 17.0409C9.43987 17.0409 9.27979 16.8825 9.27979 16.6867C9.27979 16.4908 9.43633 16.3325 9.63183 16.3325H9.63572C9.83122 16.3325 9.98989 16.4908 9.98989 16.6867C9.98989 16.8825 9.83122 17.0409 9.63572 17.0409Z" fill="#4A4A4A"/>
<path d="M9.63572 18.4574C9.43987 18.4574 9.27979 18.299 9.27979 18.1032C9.27979 17.9073 9.43633 17.749 9.63183 17.749H9.63572C9.83122 17.749 9.98989 17.9073 9.98989 18.1032C9.98989 18.299 9.83122 18.4574 9.63572 18.4574Z" fill="#4A4A4A"/>
</svg>
