<svg width="31" height="28" viewBox="0 0 31 28" fill="none" xmlns="http://www.w3.org/2000/svg">
<path fill-rule="evenodd" clip-rule="evenodd" d="M6.81811 4.54523V0.727051H4.36356V4.54523H0.54538V6.99978H4.36356V10.818H6.81811V6.99978H10.6363V4.54523H6.81811ZM28.2272 7.40894H23.9999L21.6817 4.81803H12.5454V8.63621H8.59081V12.4544H4.63627V25.4089C4.63627 26.7726 5.86354 27.9998 7.22718 27.9998H28.2272C29.7272 27.9998 30.8181 26.7726 30.8181 25.4089V9.86348C30.8181 8.49985 29.7272 7.40894 28.2272 7.40894ZM17.7272 24.1817C14.0454 24.1817 11.1817 21.318 11.1817 17.7726C11.1817 14.2271 14.1817 11.3635 17.7272 11.3635C21.409 11.3635 24.2726 14.2271 24.2726 17.7726C24.2726 21.1817 21.2726 24.1817 17.7272 24.1817ZM13.6362 17.9088C13.6362 15.5906 15.5453 13.8179 17.7271 13.8179C19.9089 13.8179 21.818 15.5906 21.818 17.9088C21.818 20.227 19.9089 21.9997 17.7271 21.9997C15.4089 21.9997 13.6362 20.227 13.6362 17.9088Z" fill="url(#paint0_linear)"/>
<defs>
<linearGradient id="paint0_linear" x1="30.5454" y1="6.1816" x2="3.7272" y2="27.9998" gradientUnits="userSpaceOnUse">
<stop stop-color="#65D9FF"/>
<stop offset="1" stop-color="#4E98EF"/>
</linearGradient>
</defs>
</svg>
